<svg width="64" height="64" viewBox="0 0 64 64" fill="none" xmlns="http://www.w3.org/2000/svg">
  <defs>
    <linearGradient id="miniBg" x1="8" y1="6" x2="58" y2="58" gradientUnits="userSpaceOnUse">
      <stop offset="0" stop-color="#131C34"/>
      <stop offset="0.5" stop-color="#10182B"/>
      <stop offset="1" stop-color="#0A1120"/>
    </linearGradient>

    <linearGradient id="miniEdge" x1="17" y1="16" x2="46" y2="46" gradientUnits="userSpaceOnUse">
      <stop offset="0" stop-color="#FFF0A8"/>
      <stop offset="0.18" stop-color="#F6D46A"/>
      <stop offset="0.34" stop-color="#B79F77"/>
      <stop offset="0.5" stop-color="#C6CDD8"/>
      <stop offset="0.68" stop-color="#8B9DB5"/>
      <stop offset="0.86" stop-color="#D7A93D"/>
      <stop offset="1" stop-color="#F2C428"/>
    </linearGradient>

    <linearGradient id="miniGold" x1="18" y1="17" x2="33" y2="33" gradientUnits="userSpaceOnUse">
      <stop offset="0" stop-color="#FFF4A6"/>
      <stop offset="0.26" stop-color="#FFDE52"/>
      <stop offset="0.58" stop-color="#F8B700"/>
      <stop offset="1" stop-color="#D87A12"/>
    </linearGradient>

    <linearGradient id="miniGoldInner" x1="20" y1="19" x2="31" y2="31" gradientUnits="userSpaceOnUse">
      <stop offset="0" stop-color="#FFF17F"/>
      <stop offset="0.34" stop-color="#FFD42D"/>
      <stop offset="0.72" stop-color="#F8B200"/>
      <stop offset="1" stop-color="#E29400"/>
    </linearGradient>

    <linearGradient id="miniSilver" x1="31" y1="16" x2="47" y2="31" gradientUnits="userSpaceOnUse">
      <stop offset="0" stop-color="#FCFEFF"/>
      <stop offset="0.26" stop-color="#E0E9F5"/>
      <stop offset="0.6" stop-color="#AABAD0"/>
      <stop offset="1" stop-color="#72849E"/>
    </linearGradient>

    <linearGradient id="miniSilverInner" x1="33" y1="18" x2="44" y2="29" gradientUnits="userSpaceOnUse">
      <stop offset="0" stop-color="#F7FBFF"/>
      <stop offset="0.34" stop-color="#DEE7F2"/>
      <stop offset="0.72" stop-color="#A9B8CC"/>
      <stop offset="1" stop-color="#8192AA"/>
    </linearGradient>

    <filter id="miniShadow" x="0" y="0" width="64" height="64" filterUnits="userSpaceOnUse" color-interpolation-filters="sRGB">
      <feDropShadow dx="0" dy="5" stdDeviation="5" flood-color="#050607" flood-opacity="0.35"/>
    </filter>
  </defs>

  <g filter="url(#miniShadow)">
    <rect x="4" y="4" width="56" height="56" rx="16" fill="url(#miniBg)"/>
  </g>

  <g transform="translate(0 1)">
    <ellipse cx="32" cy="34" rx="14.2" ry="15.8" fill="url(#miniEdge)"/>
    <ellipse cx="32" cy="29" rx="14.5" ry="14.5" fill="#10151E"/>

    <path d="M17.5 29C17.5 21 24 14.5 32 14.5V43.5C24 43.5 17.5 37 17.5 29Z" fill="url(#miniGold)"/>
    <path d="M32 14.5C40 14.5 46.5 21 46.5 29C46.5 37 40 43.5 32 43.5V14.5Z" fill="url(#miniSilver)"/>

    <ellipse cx="32" cy="29" rx="11.1" ry="11.1" fill="#111723"/>
    <path d="M20.9 29C20.9 22.9 25.9 17.9 32 17.9V40.1C25.9 40.1 20.9 35.1 20.9 29Z" fill="url(#miniGoldInner)"/>
    <path d="M32 17.9C38.1 17.9 43.1 22.9 43.1 29C43.1 35.1 38.1 40.1 32 40.1V17.9Z" fill="url(#miniSilverInner)"/>

    <rect x="30.9" y="16.2" width="2.2" height="25.6" rx="1.1" fill="url(#miniEdge)"/>

    <ellipse cx="32" cy="29" rx="13" ry="13" stroke="#FFF4BF" stroke-opacity="0.28" stroke-width="1.4"/>
    <ellipse cx="32" cy="29" rx="9.5" ry="9.5" stroke="#FFFFFF" stroke-opacity="0.16" stroke-width="1.1"/>

    <path d="M23.2 20.2C25.6 18.8 28 18 30.3 17.8" stroke="white" stroke-opacity="0.5" stroke-width="3" stroke-linecap="round"/>
    <path d="M35.2 18.3C37.4 18.7 39.4 19.6 41 20.9" stroke="white" stroke-opacity="0.26" stroke-width="2" stroke-linecap="round"/>
  </g>

  <rect x="4.5" y="4.5" width="55" height="55" rx="15.5" stroke="#1B2434"/>
</svg>