<svg width="64" height="64" viewBox="0 0 64 64" fill="none" xmlns="http://www.w3.org/2000/svg">
  <defs>
    <linearGradient id="miniBg" x1="8" y1="6" x2="56" y2="60" gradientUnits="userSpaceOnUse">
      <stop offset="0" stop-color="#FFBE2E"/>
      <stop offset="0.34" stop-color="#FFA20A"/>
      <stop offset="0.72" stop-color="#D56700"/>
      <stop offset="1" stop-color="#8D3B00"/>
    </linearGradient>

    <linearGradient id="miniRim" x1="18" y1="16" x2="45" y2="44" gradientUnits="userSpaceOnUse">
      <stop offset="0" stop-color="#91580D"/>
      <stop offset="0.48" stop-color="#FFD86E"/>
      <stop offset="1" stop-color="#7E4307"/>
    </linearGradient>

    <linearGradient id="miniFace" x1="20" y1="18" x2="42" y2="39" gradientUnits="userSpaceOnUse">
      <stop offset="0" stop-color="#FFF4B9"/>
      <stop offset="0.5" stop-color="#FFD54D"/>
      <stop offset="1" stop-color="#D28A14"/>
    </linearGradient>

    <radialGradient id="miniCenter" cx="0" cy="0" r="1" gradientUnits="userSpaceOnUse"
      gradientTransform="translate(32 31.5) rotate(90) scale(11 11)">
      <stop offset="0" stop-color="#FFE97B"/>
      <stop offset="0.62" stop-color="#F6C52D"/>
      <stop offset="1" stop-color="#D08911"/>
    </radialGradient>

    <linearGradient id="miniCut" x1="28" y1="24" x2="36" y2="38" gradientUnits="userSpaceOnUse">
      <stop offset="0" stop-color="#C37B0D"/>
      <stop offset="1" stop-color="#8E5209"/>
    </linearGradient>
  </defs>

  <rect x="4" y="4" width="56" height="56" rx="16" fill="url(#miniBg)"/>

  <path d="M13 17C19 14 26 13 32.8 13.6C38.8 14.1 44.3 15.7 49 18.8"
        stroke="#FFECA9" stroke-opacity="0.8" stroke-width="2.3" stroke-linecap="round"/>

  <g transform="rotate(-18 32 32)">
    <ellipse cx="32" cy="33" rx="16.8" ry="15.6" fill="url(#miniRim)"/>
    <ellipse cx="32" cy="31.2" rx="14.6" ry="13.2" fill="url(#miniFace)"/>
    <ellipse cx="32" cy="31.2" rx="10.8" ry="9.8" fill="url(#miniCenter)"/>

    <ellipse cx="32" cy="31.2" rx="12.7" ry="11.5" stroke="#FFF2B0" stroke-opacity="0.78" stroke-width="0.9"/>
    <ellipse cx="32" cy="31.2" rx="8.8" ry="7.9" stroke="#D5961A" stroke-opacity="0.35" stroke-width="0.7"/>

    <path d="M35.2 25.2C32.7 24.4 29.9 24.8 28.1 26.5C26.7 27.9 26.4 29.8 27 31.4C27.7 33.1 29.6 34.2 31.8 34.5C34 34.8 35.7 35.7 36.1 37.2C36.5 38.6 35.7 40 34.2 40.8C32.3 41.8 29.5 41.7 27.4 40.7"
          stroke="url(#miniCut)" stroke-width="1.9" stroke-linecap="round" stroke-linejoin="round"/>
    <path d="M31.8 23.6L30.9 41.4"
          stroke="url(#miniCut)" stroke-width="1.55" stroke-linecap="round"/>
  </g>
</svg>