<svg width="64" height="64" viewBox="0 0 64 64" fill="none" xmlns="http://www.w3.org/2000/svg">
  <defs>
    <linearGradient id="miniBg" x1="8" y1="5" x2="57" y2="60" gradientUnits="userSpaceOnUse">
      <stop offset="0" stop-color="#ff5157"/>
      <stop offset="0.28" stop-color="#ff6038"/>
      <stop offset="0.62" stop-color="#ff8e39"/>
      <stop offset="1" stop-color="#6480ff"/>
    </linearGradient>

    <radialGradient id="miniGlow" cx="0" cy="0" r="1" gradientUnits="userSpaceOnUse"
      gradientTransform="translate(33 28) rotate(90) scale(20 20)">
      <stop offset="0" stop-color="#fff0ba"/>
      <stop offset="0.55" stop-color="#ffc86c" stop-opacity="0.95"/>
      <stop offset="1" stop-color="#ffc86c" stop-opacity="0"/>
    </radialGradient>

    <linearGradient id="miniCoinOuter" x1="22" y1="18" x2="43" y2="40" gradientUnits="userSpaceOnUse">
      <stop offset="0" stop-color="#eef5ff"/>
      <stop offset="0.5" stop-color="#d2dbe8"/>
      <stop offset="1" stop-color="#8f9db2"/>
    </linearGradient>

    <linearGradient id="miniCoinInner" x1="24" y1="20" x2="40" y2="37" gradientUnits="userSpaceOnUse">
      <stop offset="0" stop-color="#f9fcff"/>
      <stop offset="1" stop-color="#aab6c8"/>
    </linearGradient>

    <linearGradient id="miniStroke" x1="25" y1="22" x2="39" y2="36" gradientUnits="userSpaceOnUse">
      <stop offset="0" stop-color="#dce4ef"/>
      <stop offset="1" stop-color="#90a0b6"/>
    </linearGradient>

    <linearGradient id="miniSymbol" x1="28" y1="26" x2="36" y2="34" gradientUnits="userSpaceOnUse">
      <stop offset="0" stop-color="#dde6f1"/>
      <stop offset="1" stop-color="#aab8cb"/>
    </linearGradient>
  </defs>

  <rect x="4" y="4" width="56" height="56" rx="16" fill="url(#miniBg)"/>

  <path d="M10 15C16 12.5 22 12.5 28 14.4C34 16.2 40 16.6 47 14"
        stroke="#fff1c3" stroke-opacity="0.52" stroke-width="2" stroke-linecap="round"/>

  <path d="M12 40C18 35 24 35 30 39C35 42 41 43 48 39"
        stroke="#fff1c3" stroke-opacity="0.30" stroke-width="1.8" stroke-linecap="round" stroke-dasharray="4 4"/>

  <g opacity="0.95">
    <ellipse cx="33" cy="28" rx="17" ry="13" fill="url(#miniGlow)"/>
  </g>

  <g transform="rotate(-16 32 31)">
    <path d="M22.2 33.2L24.8 24L34.1 20.8L42.8 24.6L44.3 33.5L38.3 40.8L28.4 40.8L22.2 33.2Z"
          fill="url(#miniCoinOuter)"/>
    <path d="M24.6 33L26.7 26.1L33.8 23.6L40.3 26.4L41.4 33.2L36.8 38.3L29.5 38.3L24.6 33Z"
          fill="url(#miniCoinInner)"/>
    <path d="M24.6 33L26.7 26.1L33.8 23.6L40.3 26.4L41.4 33.2L36.8 38.3L29.5 38.3L24.6 33Z"
          stroke="url(#miniStroke)" stroke-width="1.2" stroke-linejoin="round"/>

    <path d="M31.7 28C33.1 27.6 34.6 28 35.5 28.8C36.2 29.6 36.2 30.5 35.2 31.4L33 33.2L35.8 35"
          stroke="url(#miniSymbol)" stroke-width="1.8" stroke-linecap="round" stroke-linejoin="round"/>
    <path d="M29.4 30C30.8 29.3 32 29.3 33 30"
          stroke="url(#miniSymbol)" stroke-width="1.45" stroke-linecap="round"/>
    <path d="M29.7 34.7C31.1 35.6 32.9 35.7 34.7 35"
          stroke="url(#miniSymbol)" stroke-width="1.45" stroke-linecap="round"/>
  </g>

  <circle cx="48" cy="18" r="2.2" fill="#ffe4a3" fill-opacity="0.7"/>
</svg>