<svg width="64" height="64" viewBox="0 0 64 64" fill="none" xmlns="http://www.w3.org/2000/svg">
  <defs>
    <linearGradient id="bg" x1="8" y1="5" x2="57" y2="60" gradientUnits="userSpaceOnUse">
      <stop offset="0" stop-color="#FF585E"/>
      <stop offset="0.24" stop-color="#FF693A"/>
      <stop offset="0.58" stop-color="#FF9534"/>
      <stop offset="1" stop-color="#6E86FF"/>
    </linearGradient>

    <radialGradient id="glow" cx="0" cy="0" r="1" gradientUnits="userSpaceOnUse"
      gradientTransform="translate(32 28) rotate(90) scale(15 15)">
      <stop offset="0" stop-color="#FFF2BB"/>
      <stop offset="0.52" stop-color="#FFD06D" stop-opacity="0.90"/>
      <stop offset="1" stop-color="#FFD06D" stop-opacity="0"/>
    </radialGradient>

    <linearGradient id="coinEdge" x1="22" y1="18" x2="43" y2="39" gradientUnits="userSpaceOnUse">
      <stop offset="0" stop-color="#EFF6FF"/>
      <stop offset="0.5" stop-color="#D4DDEA"/>
      <stop offset="1" stop-color="#95A3B8"/>
    </linearGradient>

    <linearGradient id="coinFace" x1="24" y1="20" x2="40" y2="36" gradientUnits="userSpaceOnUse">
      <stop offset="0" stop-color="#FAFDFF"/>
      <stop offset="0.55" stop-color="#DFE6F0"/>
      <stop offset="1" stop-color="#ACB8CA"/>
    </linearGradient>

    <linearGradient id="coinStroke" x1="25" y1="22" x2="39" y2="35" gradientUnits="userSpaceOnUse">
      <stop offset="0" stop-color="#DEE6F1"/>
      <stop offset="1" stop-color="#90A1B7"/>
    </linearGradient>

    <linearGradient id="symbol" x1="28" y1="26" x2="36" y2="33" gradientUnits="userSpaceOnUse">
      <stop offset="0" stop-color="#E3EBF4"/>
      <stop offset="1" stop-color="#AFBBCD"/>
    </linearGradient>
  </defs>

  <rect x="4" y="4" width="56" height="56" rx="16" fill="url(#bg)"/>

  <path d="M12 15C17 13 22 13 28 14.6C34 16.1 40 16.5 46 14.4"
        stroke="#FFF1C2" stroke-opacity="0.42" stroke-width="2" stroke-linecap="round"/>

  <path d="M14 40C19 36.5 24 36.5 29 39.5C34 42 39 42.5 45 39.5"
        stroke="#FFF1C2" stroke-opacity="0.22" stroke-width="1.7" stroke-linecap="round" stroke-dasharray="4 4"/>

  <ellipse cx="32" cy="28" rx="13.5" ry="9.5" fill="url(#glow)"/>

  <g transform="rotate(-16 32 31)">
    <path d="M22.8 32.8L24.9 25.1L33.8 21.8L41.9 25.3L43.4 32.9L37.9 39.9L29.2 39.9L22.8 32.8Z"
          fill="url(#coinEdge)"/>
    <path d="M24.7 32.7L26.5 26.8L33.4 24.2L39.7 26.9L40.8 32.8L36.6 37.8L29.9 37.8L24.7 32.7Z"
          fill="url(#coinFace)"/>
    <path d="M24.7 32.7L26.5 26.8L33.4 24.2L39.7 26.9L40.8 32.8L36.6 37.8L29.9 37.8L24.7 32.7Z"
          stroke="url(#coinStroke)" stroke-width="1.15" stroke-linejoin="round"/>

    <path d="M31.6 28.1C32.9 27.7 34.3 28 35.1 28.8C35.7 29.4 35.7 30.1 34.9 30.8L33 32.4L35.3 33.9"
          stroke="url(#symbol)" stroke-width="1.7" stroke-linecap="round" stroke-linejoin="round"/>
    <path d="M29.7 29.9C30.8 29.4 31.8 29.4 32.8 29.9"
          stroke="url(#symbol)" stroke-width="1.35" stroke-linecap="round"/>
    <path d="M29.8 33.8C31 34.5 32.4 34.6 33.8 34"
          stroke="url(#symbol)" stroke-width="1.35" stroke-linecap="round"/>
  </g>

  <circle cx="47.5" cy="18" r="1.9" fill="#FFE5A2" fill-opacity="0.5"/>
</svg>