<svg width="64" height="64" viewBox="0 0 64 64" fill="none" xmlns="http://www.w3.org/2000/svg">
  <defs>
    <linearGradient id="miniBg" x1="8" y1="5" x2="57" y2="60" gradientUnits="userSpaceOnUse">
      <stop offset="0" stop-color="#ff4d4d"/>
      <stop offset="0.38" stop-color="#ff6734"/>
      <stop offset="0.76" stop-color="#f08a2c"/>
      <stop offset="1" stop-color="#6f84ff"/>
    </linearGradient>

    <linearGradient id="miniCoinOuter" x1="20" y1="18" x2="44" y2="42" gradientUnits="userSpaceOnUse">
      <stop offset="0" stop-color="#eef6ff"/>
      <stop offset="0.48" stop-color="#cfd9e7"/>
      <stop offset="1" stop-color="#8797ad"/>
    </linearGradient>

    <linearGradient id="miniCoinInner" x1="22" y1="20" x2="40" y2="38" gradientUnits="userSpaceOnUse">
      <stop offset="0" stop-color="#f9fcff"/>
      <stop offset="1" stop-color="#a5b3c4"/>
    </linearGradient>

    <linearGradient id="miniStroke" x1="24" y1="22" x2="38" y2="36" gradientUnits="userSpaceOnUse">
      <stop offset="0" stop-color="#dbe3ef"/>
      <stop offset="1" stop-color="#9eacbe"/>
    </linearGradient>
  </defs>

  <rect x="4" y="4" width="56" height="56" rx="16" fill="url(#miniBg)"/>

  <path d="M12 15C19 13 25 13.2 31 14.7C37 16.2 43 17 51 14.5"
        stroke="#fff2c4" stroke-opacity="0.52" stroke-width="2" stroke-linecap="round"/>

  <path d="M12 41C19 35 27 35 34 40C39 44 45 45 52 41"
        stroke="#fff2c4" stroke-opacity="0.34" stroke-width="2" stroke-linecap="round" stroke-dasharray="4 4"/>

  <g transform="rotate(-17 32 32)">
    <path d="M20 34L23.5 22.5L35.5 18.5L46 24L47.8 35.5L40.5 45L28.5 45L20 34Z" fill="url(#miniCoinOuter)"/>
    <path d="M23 34L25.7 25.2L34.8 22.1L42.7 25.8L44 34.6L38.5 41.2L29.4 41.2L23 34Z" fill="url(#miniCoinInner)"/>
    <path d="M23 34L25.7 25.2L34.8 22.1L42.7 25.8L44 34.6L38.5 41.2L29.4 41.2L23 34Z"
          stroke="url(#miniStroke)" stroke-width="1.3" stroke-linejoin="round"/>

    <path d="M32.2 26.3C34.1 25.9 36 26.2 37.2 27.5C38.3 28.7 38.3 30.2 37 31.4L34.3 33.7L37.6 36"
          stroke="#dfe7f2" stroke-width="1.9" stroke-linecap="round" stroke-linejoin="round"/>
    <path d="M29.3 28.8C31.2 27.9 33 27.9 34.4 28.8"
          stroke="#dfe7f2" stroke-width="1.5" stroke-linecap="round"/>
    <path d="M29.5 35.7C31.4 37 33.7 37.1 36 36"
          stroke="#dfe7f2" stroke-width="1.5" stroke-linecap="round"/>
  </g>
</svg>