<svg width="64" height="64" viewBox="0 0 64 64" fill="none" xmlns="http://www.w3.org/2000/svg">
  <defs>
    <linearGradient id="bgMini" x1="8" y1="6" x2="56" y2="58" gradientUnits="userSpaceOnUse">
      <stop offset="0" stop-color="#ffb326"/>
      <stop offset="0.48" stop-color="#ff920d"/>
      <stop offset="1" stop-color="#a84a00"/>
    </linearGradient>

    <linearGradient id="coinMini" x1="20" y1="14" x2="42" y2="42" gradientUnits="userSpaceOnUse">
      <stop offset="0" stop-color="#fff2b1"/>
      <stop offset="0.45" stop-color="#f2c95e"/>
      <stop offset="1" stop-color="#b67517"/>
    </linearGradient>

    <linearGradient id="coinMiniEdge" x1="18" y1="16" x2="46" y2="46" gradientUnits="userSpaceOnUse">
      <stop offset="0" stop-color="#9f620f"/>
      <stop offset="0.5" stop-color="#f3cf64"/>
      <stop offset="1" stop-color="#8b5108"/>
    </linearGradient>
  </defs>

  <rect x="4" y="4" width="56" height="56" rx="16" fill="url(#bgMini)"/>
  <ellipse cx="33" cy="34" rx="16" ry="16.5" fill="url(#coinMiniEdge)"/>
  <ellipse cx="33" cy="32" rx="14" ry="14" fill="url(#coinMini)"/>
  <circle cx="33" cy="32" r="11.5" stroke="rgba(255,246,194,0.65)" stroke-width="1.6"/>

  <path d="M36.5 24.8C32.3 23.7 27.8 25.3 27.2 29.1C26.8 31.8 28.8 33.3 32.5 34.1C36.6 35 38.2 36.4 37.7 39C37.2 42 34.1 43.5 31 43C28.4 42.6 26.2 41.4 24.9 40.1"
        stroke="#965b0f" stroke-width="2.8" stroke-linecap="round" stroke-linejoin="round"/>
  <path d="M30.5 21.8L29.8 44.2" stroke="#965b0f" stroke-width="2.4" stroke-linecap="round"/>
</svg>
