<svg width="64" height="64" viewBox="0 0 64 64" fill="none" xmlns="http://www.w3.org/2000/svg">
  <defs>
    <linearGradient id="miniBg" x1="8" y1="6" x2="58" y2="58" gradientUnits="userSpaceOnUse">
      <stop offset="0" stop-color="#131C34"/>
      <stop offset="0.5" stop-color="#10182B"/>
      <stop offset="1" stop-color="#0A1120"/>
    </linearGradient>

    <linearGradient id="miniGold" x1="16" y1="16" x2="34" y2="34" gradientUnits="userSpaceOnUse">
      <stop offset="0" stop-color="#FFF39F"/>
      <stop offset="0.28" stop-color="#FFD84B"/>
      <stop offset="0.65" stop-color="#F8B400"/>
      <stop offset="1" stop-color="#DD7A11"/>
    </linearGradient>

    <linearGradient id="miniGoldInner" x1="18" y1="18" x2="32" y2="31" gradientUnits="userSpaceOnUse">
      <stop offset="0" stop-color="#FFF27B"/>
      <stop offset="0.34" stop-color="#FFD42E"/>
      <stop offset="0.72" stop-color="#F7B300"/>
      <stop offset="1" stop-color="#E39400"/>
    </linearGradient>

    <linearGradient id="miniSilver" x1="29" y1="14" x2="47" y2="31" gradientUnits="userSpaceOnUse">
      <stop offset="0" stop-color="#F8FBFF"/>
      <stop offset="0.3" stop-color="#DEE7F4"/>
      <stop offset="0.68" stop-color="#A7B7CF"/>
      <stop offset="1" stop-color="#73859E"/>
    </linearGradient>

    <linearGradient id="miniSilverInner" x1="31" y1="16" x2="45" y2="29" gradientUnits="userSpaceOnUse">
      <stop offset="0" stop-color="#F7FAFE"/>
      <stop offset="0.34" stop-color="#DCE6F3"/>
      <stop offset="0.72" stop-color="#A6B7D0"/>
      <stop offset="1" stop-color="#7D90A9"/>
    </linearGradient>

    <linearGradient id="miniEdge" x1="18" y1="18" x2="44" y2="45" gradientUnits="userSpaceOnUse">
      <stop offset="0" stop-color="#FFF2AE"/>
      <stop offset="0.2" stop-color="#F3D992"/>
      <stop offset="0.36" stop-color="#C7B08C"/>
      <stop offset="0.5" stop-color="#B9B5B8"/>
      <stop offset="0.68" stop-color="#8FA1BA"/>
      <stop offset="0.86" stop-color="#D4B254"/>
      <stop offset="1" stop-color="#F7C52A"/>
    </linearGradient>

    <filter id="miniShadow" x="0" y="0" width="64" height="64" filterUnits="userSpaceOnUse" color-interpolation-filters="sRGB">
      <feDropShadow dx="0" dy="5" stdDeviation="5" flood-color="#050607" flood-opacity="0.35"/>
    </filter>
  </defs>

  <g filter="url(#miniShadow)">
    <rect x="4" y="4" width="56" height="56" rx="16" fill="url(#miniBg)"/>
  </g>

  <g transform="translate(0 1)">
    <ellipse cx="33" cy="34" rx="13.5" ry="15" fill="url(#miniEdge)"/>

    <path d="M21.8 22.7C25.2 19.5 30.2 17.8 34.8 17.8C36.7 17.8 38.6 18 40.1 18.6C38.1 21 37 24.9 37 29C37 33 38 36.7 39.8 39.2C38.4 39.7 36.9 39.9 35.2 39.9C30.4 39.9 25 38.1 21.4 34.8C19.4 33 18.4 31 18.4 29C18.4 26.8 19.6 24.7 21.8 22.7Z"
          fill="url(#miniGold)"/>
    <path d="M24.2 24.8C27 22.4 31 21 34.4 21C35.7 21 36.9 21.1 37.9 21.5C36.6 23.4 35.9 26 35.9 29C35.9 31.9 36.6 34.5 37.8 36.5C36.9 36.8 35.9 36.9 34.8 36.9C31.1 36.9 26.8 35.6 24 33C22.5 31.6 21.7 30.3 21.7 28.9C21.7 27.5 22.5 26.2 24.2 24.8Z"
          fill="url(#miniGoldInner)"/>

    <path d="M44.1 22C47 24.3 48.5 26.6 48.5 29C48.5 31.3 47.3 33.6 45 35.9C41.6 39.1 36.4 40.9 31.8 40.9C29.8 40.9 27.9 40.6 26.4 40C28.4 37.6 29.5 33.7 29.5 29.7C29.5 25.7 28.5 22 26.6 19.4C28 18.9 29.7 18.7 31.4 18.7C36 18.7 40.8 20.1 44.1 22Z"
          fill="url(#miniSilver)"/>
    <path d="M42.2 24.6C44.4 26.1 45.6 27.6 45.6 29C45.6 30.5 44.7 31.9 42.9 33.4C40.2 36 35.8 37.2 32.2 37.2C31 37.2 29.9 37.1 28.9 36.8C30.2 34.8 30.9 32.2 30.9 29.3C30.9 26.3 30.2 23.7 28.9 21.8C29.8 21.4 31 21.2 32.1 21.2C35.7 21.2 39.4 22.5 42.2 24.6Z"
          fill="url(#miniSilverInner)"/>

    <ellipse cx="31.8" cy="29.1" rx="3.9" ry="10.9" fill="url(#miniEdge)"/>
  </g>

  <rect x="4.5" y="4.5" width="55" height="55" rx="15.5" stroke="#1B2434"/>
</svg>