<svg width="512" height="640" viewBox="0 0 512 640" fill="none" xmlns="http://www.w3.org/2000/svg">
  <defs>
    <clipPath id="clipCoin">
      <rect x="12" y="12" width="488" height="616" rx="36"/>
    </clipPath>

    <linearGradient id="coinBg" x1="48" y1="16" x2="460" y2="624" gradientUnits="userSpaceOnUse">
      <stop offset="0" stop-color="#FF7A45"/>
      <stop offset="0.24" stop-color="#FFB12A"/>
      <stop offset="0.62" stop-color="#F07A17"/>
      <stop offset="1" stop-color="#8F79FF"/>
    </linearGradient>

    <radialGradient id="coinGlow" cx="0" cy="0" r="1" gradientUnits="userSpaceOnUse"
      gradientTransform="translate(264 188) rotate(90) scale(108 108)">
      <stop offset="0" stop-color="#FFF3A8"/>
      <stop offset="0.44" stop-color="#FFD55A" stop-opacity="0.95"/>
      <stop offset="1" stop-color="#FFD55A" stop-opacity="0"/>
    </radialGradient>

    <linearGradient id="coinOuter" x1="208" y1="124" x2="314" y2="248" gradientUnits="userSpaceOnUse">
      <stop offset="0" stop-color="#FFF2A2"/>
      <stop offset="0.5" stop-color="#F6C850"/>
      <stop offset="1" stop-color="#C9871C"/>
    </linearGradient>

    <linearGradient id="coinInner" x1="224" y1="140" x2="298" y2="228" gradientUnits="userSpaceOnUse">
      <stop offset="0" stop-color="#FFE8A1"/>
      <stop offset="1" stop-color="#D99B2B"/>
    </linearGradient>

    <filter id="coinShadow" x="152" y="96" width="220" height="220" filterUnits="userSpaceOnUse" color-interpolation-filters="sRGB">
      <feDropShadow dx="0" dy="18" stdDeviation="14" flood-color="#7A3508" flood-opacity="0.34"/>
    </filter>
  </defs>

  <rect x="12" y="12" width="488" height="616" rx="36" fill="url(#coinBg)"/>

  <g clip-path="url(#clipCoin)">
    <ellipse cx="264" cy="188" rx="112" ry="112" fill="url(#coinGlow)"/>

    <path d="M60 96C132 72 212 69 294 83C362 94 421 88 474 54" stroke="#FFF3B0" stroke-opacity="0.55" stroke-width="10" stroke-linecap="round"/>
    <path d="M84 278C151 246 219 235 288 246C336 254 388 254 436 246" stroke="#FFF8D4" stroke-opacity="0.45" stroke-width="4" stroke-linecap="round" stroke-dasharray="10 10"/>

    <circle cx="91" cy="343" r="5" fill="#F08D52" fill-opacity="0.6"/>
    <rect x="400" y="72" width="18" height="18" transform="rotate(28 400 72)" fill="#FFD57F" fill-opacity="0.85"/>

    <g filter="url(#coinShadow)">
      <ellipse cx="260" cy="190" rx="68" ry="68" fill="url(#coinOuter)"/>
      <ellipse cx="260" cy="190" rx="49" ry="49" fill="url(#coinInner)"/>
      <path d="M259 158C246 158 237 165 237 176C237 187 243 192 256 195C267 198 271 201 271 209C271 217 265 223 255 223C247 223 239 220 233 215" stroke="#8A5520" stroke-width="8" stroke-linecap="round" stroke-linejoin="round"/>
      <path d="M261 151V231" stroke="#8A5520" stroke-width="8" stroke-linecap="round"/>
      <ellipse cx="243" cy="167" rx="19" ry="12" fill="#FFF6B8" fill-opacity="0.28"/>
    </g>

    <ellipse cx="258" cy="390" rx="108" ry="34" fill="#FF6C63" fill-opacity="0.28"/>

    <text x="256" y="495"
          text-anchor="middle"
          fill="#FFFFFF"
          font-family="Arial, Helvetica, sans-serif"
          font-size="63"
          font-weight="900">COIN</text>

    <text x="256" y="564"
          text-anchor="middle"
          fill="#FFFFFF"
          font-family="Arial, Helvetica, sans-serif"
          font-size="63"
          font-weight="900">FLIP</text>

    <text x="256" y="592"
          text-anchor="middle"
          fill="#F4EEF9"
          fill-opacity="0.95"
          font-family="Arial, Helvetica, sans-serif"
          font-size="18"
          font-weight="700"
          letter-spacing="2.8">TRINITI MODE</text>
  </g>

  <rect x="16" y="16" width="480" height="608" rx="32" stroke="#4C2952" stroke-width="3"/>
</svg>