<svg width="64" height="64" viewBox="0 0 64 64" fill="none" xmlns="http://www.w3.org/2000/svg">
  <defs>
    <linearGradient id="coinMiniBg" x1="8" y1="6" x2="58" y2="58" gradientUnits="userSpaceOnUse">
      <stop offset="0" stop-color="#3A3735"/>
      <stop offset="0.5" stop-color="#2B2927"/>
      <stop offset="1" stop-color="#1D1C1B"/>
    </linearGradient>

    <linearGradient id="coinMiniEdge" x1="16" y1="12" x2="47" y2="43" gradientUnits="userSpaceOnUse">
      <stop offset="0" stop-color="#FFF19E"/>
      <stop offset="0.25" stop-color="#FFD94E"/>
      <stop offset="0.58" stop-color="#F7B400"/>
      <stop offset="1" stop-color="#D86B10"/>
    </linearGradient>

    <linearGradient id="coinMiniFace" x1="20" y1="13" x2="42" y2="35" gradientUnits="userSpaceOnUse">
      <stop offset="0" stop-color="#FFF16B"/>
      <stop offset="0.35" stop-color="#FFD129"/>
      <stop offset="0.7" stop-color="#F6B300"/>
      <stop offset="1" stop-color="#E29200"/>
    </linearGradient>

    <filter id="coinMiniShadow" x="0" y="0" width="64" height="64" filterUnits="userSpaceOnUse" color-interpolation-filters="sRGB">
      <feDropShadow dx="0" dy="5" stdDeviation="5" flood-color="#050607" flood-opacity="0.34"/>
    </filter>
  </defs>

  <g filter="url(#coinMiniShadow)">
    <rect x="4" y="4" width="56" height="56" rx="16" fill="url(#coinMiniBg)"/>
  </g>

  <ellipse cx="35" cy="36.5" rx="13.6" ry="15.4" fill="url(#coinMiniEdge)"/>
  <ellipse cx="31" cy="28.5" rx="14.5" ry="14.5" fill="url(#coinMiniFace)"/>
  <ellipse cx="31" cy="28.5" rx="11.5" ry="11.5" fill="#FFD43B"/>
  <ellipse cx="27" cy="23" rx="8.5" ry="6" fill="white" fill-opacity="0.28"/>

  <!-- skull -->
  <path d="M25.4 20.8C21.9 20.8 19.7 23.3 19.7 26.4C19.7 28.3 20.6 30 22.3 31V32.8C22.3 33.7 23 34.4 23.9 34.4H26.9C27.8 34.4 28.5 33.7 28.5 32.8V32.3H29.3V32.8C29.3 33.7 30 34.4 30.9 34.4H33.9C34.8 34.4 35.5 33.7 35.5 32.8V31C37.2 30 38.1 28.3 38.1 26.4C38.1 23.3 35.9 20.8 32.4 20.8H25.4Z" fill="#FFDA3B"/>
  <circle cx="26" cy="26.1" r="1.7" fill="#B86B12"/>
  <circle cx="31.6" cy="26.1" r="1.7" fill="#B86B12"/>
  <path d="M29 28.8L27.2 31.2C27 31.5 27.2 31.9 27.6 31.9H30.4C30.8 31.9 31 31.5 30.8 31.2L29 28.8Z" fill="#B86B12"/>

  <!-- clover -->
  <path d="M33.8 29.1C33.8 27.6 35 26.5 36.4 26.5C37.1 26.5 37.7 26.8 38.2 27.3C38.6 26.8 39.3 26.5 40 26.5C41.4 26.5 42.5 27.6 42.5 29.1C42.5 30.4 41.5 31.5 40.3 31.7C40.6 32.2 40.8 32.8 40.8 33.4C40.8 34.8 39.7 36 38.2 36C36.8 36 35.6 34.8 35.6 33.4C35.6 32.8 35.8 32.2 36.1 31.7C34.8 31.5 33.8 30.4 33.8 29.1Z" fill="#84D737"/>
  <path d="M38.4 31.6C37.8 34 36.2 36.3 34.1 37.8" stroke="#5DAF22" stroke-width="1.8" stroke-linecap="round"/>

  <rect x="4.5" y="4.5" width="55" height="55" rx="15.5" stroke="#1D2531"/>
</svg>