<svg width="64" height="64" viewBox="0 0 64 64" fill="none" xmlns="http://www.w3.org/2000/svg">
  <defs>
    <linearGradient id="miniBg" x1="10" y1="6" x2="56" y2="60" gradientUnits="userSpaceOnUse">
      <stop offset="0" stop-color="#FFBC28"/>
      <stop offset="0.42" stop-color="#FF9B0A"/>
      <stop offset="1" stop-color="#914000"/>
    </linearGradient>

    <linearGradient id="miniRim" x1="22" y1="15" x2="44" y2="40" gradientUnits="userSpaceOnUse">
      <stop offset="0" stop-color="#91570C"/>
      <stop offset="0.5" stop-color="#F0CB67"/>
      <stop offset="1" stop-color="#7D4708"/>
    </linearGradient>

    <linearGradient id="miniFace" x1="24" y1="17" x2="41" y2="35" gradientUnits="userSpaceOnUse">
      <stop offset="0" stop-color="#FFF2B3"/>
      <stop offset="0.55" stop-color="#F0C95D"/>
      <stop offset="1" stop-color="#C27C18"/>
    </linearGradient>
  </defs>

  <rect x="4" y="4" width="56" height="56" rx="16" fill="url(#miniBg)"/>

  <g transform="rotate(-18 32 32)">
    <ellipse cx="32" cy="33" rx="16" ry="16.4" fill="url(#miniRim)"/>
    <ellipse cx="32" cy="31.5" rx="13.7" ry="13.7" fill="url(#miniFace)"/>

    <circle cx="32" cy="31.5" r="11.4" stroke="#FFF0AF" stroke-opacity="0.72" stroke-width="1.4"/>

    <path d="M32 24.8C34.4 24.8 36.4 25.8 37.5 27.5"
          stroke="#8F560E" stroke-width="2.15" stroke-linecap="round"/>
    <path d="M32 24.8C29.5 24.8 27.4 26 26.3 28"
          stroke="#8F560E" stroke-width="2.15" stroke-linecap="round"/>
    <path d="M26.3 28C25.6 29.4 25.6 30.7 26.3 32"
          stroke="#8F560E" stroke-width="2.15" stroke-linecap="round"/>
    <path d="M37.5 27.5C38.5 29 38.5 31 37.5 32.7"
          stroke="#8F560E" stroke-width="2.15" stroke-linecap="round"/>
    <path d="M26.3 32C27.4 34 29.5 35.1 32 35.1"
          stroke="#8F560E" stroke-width="2.15" stroke-linecap="round"/>
    <path d="M37.5 32.7C36.4 34.2 34.4 35.1 32 35.1"
          stroke="#8F560E" stroke-width="2.15" stroke-linecap="round"/>
  </g>
</svg>