<svg width="64" height="64" viewBox="0 0 64 64" fill="none" xmlns="http://www.w3.org/2000/svg">
  <defs>
    <linearGradient id="miniBg" x1="8" y1="5" x2="57" y2="60" gradientUnits="userSpaceOnUse">
      <stop offset="0" stop-color="#FF5358"/>
      <stop offset="0.25" stop-color="#FF6337"/>
      <stop offset="0.58" stop-color="#FF8D35"/>
      <stop offset="1" stop-color="#6D86FF"/>
    </linearGradient>

    <radialGradient id="miniGlow" cx="0" cy="0" r="1" gradientUnits="userSpaceOnUse"
      gradientTransform="translate(32 28) rotate(90) scale(18 18)">
      <stop offset="0" stop-color="#FFF0BA"/>
      <stop offset="0.56" stop-color="#FFC96D" stop-opacity="0.92"/>
      <stop offset="1" stop-color="#FFC96D" stop-opacity="0"/>
    </radialGradient>

    <linearGradient id="miniCoinOuter" x1="22" y1="18" x2="43" y2="40" gradientUnits="userSpaceOnUse">
      <stop offset="0" stop-color="#EEF5FF"/>
      <stop offset="0.5" stop-color="#D2DBE8"/>
      <stop offset="1" stop-color="#909DB2"/>
    </linearGradient>

    <linearGradient id="miniCoinInner" x1="24" y1="20" x2="40" y2="37" gradientUnits="userSpaceOnUse">
      <stop offset="0" stop-color="#F9FCFF"/>
      <stop offset="0.54" stop-color="#DCE3EE"/>
      <stop offset="1" stop-color="#AAB6C8"/>
    </linearGradient>

    <linearGradient id="miniCoinStroke" x1="25" y1="22" x2="39" y2="36" gradientUnits="userSpaceOnUse">
      <stop offset="0" stop-color="#DCE4EF"/>
      <stop offset="1" stop-color="#8FA0B6"/>
    </linearGradient>

    <linearGradient id="miniSymbol" x1="28" y1="26" x2="36" y2="34" gradientUnits="userSpaceOnUse">
      <stop offset="0" stop-color="#DFE7F2"/>
      <stop offset="1" stop-color="#AAB8CB"/>
    </linearGradient>
  </defs>

  <rect x="4" y="4" width="56" height="56" rx="16" fill="url(#miniBg)"/>

  <path d="M11 15C16 13 22 12.8 28 14.5C34 16.2 40 16.7 47 14.2"
        stroke="#FFF0C2" stroke-opacity="0.50" stroke-width="2" stroke-linecap="round"/>

  <path d="M13 40C18 36 24 36 29 39.5C34 42.5 40 43 47 39.5"
        stroke="#FFF0C2" stroke-opacity="0.28" stroke-width="1.8" stroke-linecap="round" stroke-dasharray="4 4"/>

  <g opacity="0.96">
    <ellipse cx="32" cy="28" rx="16" ry="11" fill="url(#miniGlow)"/>
  </g>

  <g transform="rotate(-16 32 31)">
    <path d="M22.3 33.1L24.8 24.2L34 21L42.6 24.7L44 33.4L38.2 40.5L28.6 40.5L22.3 33.1Z"
          fill="url(#miniCoinOuter)"/>
    <path d="M24.6 33L26.7 26.3L33.7 23.8L40.1 26.5L41.2 33.1L36.7 38.1L29.6 38.1L24.6 33Z"
          fill="url(#miniCoinInner)"/>
    <path d="M24.6 33L26.7 26.3L33.7 23.8L40.1 26.5L41.2 33.1L36.7 38.1L29.6 38.1L24.6 33Z"
          stroke="url(#miniCoinStroke)" stroke-width="1.2" stroke-linejoin="round"/>

    <path d="M31.7 28.1C33.1 27.7 34.5 28 35.4 28.8C36.2 29.6 36.2 30.4 35.2 31.3L33.1 33.1L35.7 34.9"
          stroke="url(#miniSymbol)" stroke-width="1.8" stroke-linecap="round" stroke-linejoin="round"/>
    <path d="M29.5 30C30.8 29.4 32 29.4 33 30"
          stroke="url(#miniSymbol)" stroke-width="1.45" stroke-linecap="round"/>
    <path d="M29.8 34.5C31.1 35.4 32.8 35.4 34.6 34.9"
          stroke="url(#miniSymbol)" stroke-width="1.45" stroke-linecap="round"/>
  </g>

  <circle cx="48" cy="18" r="2.1" fill="#FFE5A2" fill-opacity="0.64"/>
</svg>