<svg width="64" height="64" viewBox="0 0 64 64" fill="none" xmlns="http://www.w3.org/2000/svg">
  <defs>
    <linearGradient id="bg" x1="8" y1="5" x2="57" y2="60" gradientUnits="userSpaceOnUse">
      <stop offset="0" stop-color="#1A1D24"/>
      <stop offset="0.34" stop-color="#12151C"/>
      <stop offset="0.72" stop-color="#231116"/>
      <stop offset="1" stop-color="#441118"/>
    </linearGradient>

    <linearGradient id="lineGrad" x1="12" y1="42" x2="52" y2="16" gradientUnits="userSpaceOnUse">
      <stop offset="0" stop-color="#FF4848"/>
      <stop offset="0.52" stop-color="#FF7C45"/>
      <stop offset="1" stop-color="#FFD66F"/>
    </linearGradient>

    <radialGradient id="topGlow" cx="0" cy="0" r="1" gradientUnits="userSpaceOnUse"
      gradientTransform="translate(44 16) rotate(90) scale(12 14)">
      <stop offset="0" stop-color="#FFF0AF"/>
      <stop offset="0.45" stop-color="#FFB35A" stop-opacity="0.9"/>
      <stop offset="1" stop-color="#FF7A3D" stop-opacity="0"/>
    </radialGradient>

    <linearGradient id="rocketBody" x1="30" y1="18" x2="34" y2="46" gradientUnits="userSpaceOnUse">
      <stop offset="0" stop-color="#F7FAFF"/>
      <stop offset="0.46" stop-color="#DFE7F1"/>
      <stop offset="1" stop-color="#A7B4C6"/>
    </linearGradient>

    <linearGradient id="rocketEdge" x1="25" y1="22" x2="36" y2="45" gradientUnits="userSpaceOnUse">
      <stop offset="0" stop-color="#D0D9E5"/>
      <stop offset="1" stop-color="#7E8A9B"/>
    </linearGradient>

    <linearGradient id="rocketShade" x1="32" y1="20" x2="35" y2="43" gradientUnits="userSpaceOnUse">
      <stop offset="0" stop-color="#D5DEE9"/>
      <stop offset="1" stop-color="#8B98A9"/>
    </linearGradient>

    <linearGradient id="finRed" x1="22" y1="39" x2="29" y2="47" gradientUnits="userSpaceOnUse">
      <stop offset="0" stop-color="#FF6161"/>
      <stop offset="1" stop-color="#B62B2B"/>
    </linearGradient>

    <linearGradient id="fireGrad" x1="27" y1="52" x2="33" y2="43" gradientUnits="userSpaceOnUse">
      <stop offset="0" stop-color="#FF403C"/>
      <stop offset="0.45" stop-color="#FF8E3F"/>
      <stop offset="1" stop-color="#FFE37D"/>
    </linearGradient>
  </defs>

  <rect x="4" y="4" width="56" height="56" rx="16" fill="url(#bg)"/>

  <ellipse cx="44" cy="16" rx="10" ry="8" fill="url(#topGlow)"/>

  <path d="M13 42C20 39 25 35 30 30C35 25 39 20 45 15"
        stroke="url(#lineGrad)" stroke-width="3.4" stroke-linecap="round"/>

  <path d="M14 46C21 42 27 37 32 31C36 26 40 21 45 17"
        stroke="url(#lineGrad)" stroke-opacity="0.25" stroke-width="1.6" stroke-linecap="round"/>

  <g transform="rotate(-28 32 31)">
    <!-- flame -->
    <path d="M30 45C27.6 47.2 26.7 50 27.1 52.4C29.4 51.1 31.5 51.1 33.4 52.2C35.2 50.6 36 48.1 35.6 45.3C35.2 42.8 33.7 40.8 31.6 39.7C31.6 41.8 31.1 43.5 30 45Z"
          fill="url(#fireGrad)"/>
    <path d="M31.1 46.3C29.8 47.7 29.2 49.2 29.4 50.8C30.7 50.1 31.9 50.1 33 50.7C34 49.6 34.4 48 34.2 46.4C34 44.8 33.2 43.5 32.1 42.8C32.1 44 31.8 45.1 31.1 46.3Z"
          fill="#FFF0A9"/>

    <!-- fins -->
    <path d="M24.6 38.4C22.3 39.7 20.4 41.7 19.3 44.1C21.8 43.6 24.1 43.8 26.4 44.9V40.5L24.6 38.4Z"
          fill="url(#finRed)"/>
    <path d="M37.6 40.5V44.9C39.9 43.8 42.2 43.6 44.7 44.1C43.6 41.7 41.7 39.7 39.4 38.4L37.6 40.5Z"
          fill="url(#finRed)"/>

    <!-- body -->
    <path d="M32 14C35.6 18.2 37.6 23.5 37.6 31.2V41.4C37.6 43.3 36.1 44.8 34.2 44.8H29.8C27.9 44.8 26.4 43.3 26.4 41.4V31.2C26.4 23.5 28.4 18.2 32 14Z"
          fill="url(#rocketBody)"/>

    <!-- highlight -->
    <path d="M32 14C33.8 16.4 35.1 19 35.8 22.1C34.4 20 32.7 18.5 30.3 17.2C29.5 16.8 28.7 16.5 27.9 16.2C29.2 15.2 30.6 14.5 32 14Z"
          fill="#FFFFFF" fill-opacity="0.55"/>

    <!-- shade -->
    <path d="M32 15C34.7 18.9 36.2 24.4 36.2 31.2V41.4C36.2 42.4 35.4 43.2 34.4 43.2H32V15Z"
          fill="url(#rocketShade)" fill-opacity="0.72"/>

    <!-- stroke -->
    <path d="M32 14C35.6 18.2 37.6 23.5 37.6 31.2V41.4C37.6 43.3 36.1 44.8 34.2 44.8H29.8C27.9 44.8 26.4 43.3 26.4 41.4V31.2C26.4 23.5 28.4 18.2 32 14Z"
          stroke="url(#rocketEdge)" stroke-width="1.1"/>

    <!-- window -->
    <ellipse cx="32" cy="25.5" rx="2.9" ry="4.1" fill="#C9D8EB"/>
    <ellipse cx="32" cy="25.5" rx="1.7" ry="2.5" fill="#EAF3FF"/>
    <ellipse cx="31.2" cy="24.4" rx="0.8" ry="1.2" fill="#FFFFFF" fill-opacity="0.48"/>

    <!-- nozzle -->
    <path d="M29.6 43.4H34.4L33.4 46H30.6L29.6 43.4Z" fill="#9EABB9"/>
  </g>

  <circle cx="15" cy="14" r="1.3" fill="#ffffff" fill-opacity="0.28"/>
  <circle cx="20" cy="18" r="1" fill="#ffffff" fill-opacity="0.20"/>
</svg>