<svg width="512" height="640" viewBox="0 0 512 640" fill="none" xmlns="http://www.w3.org/2000/svg">
  <defs>
    <clipPath id="cardClip">
      <rect x="12" y="12" width="488" height="616" rx="36"/>
    </clipPath>

    <linearGradient id="cardBg" x1="54" y1="24" x2="454" y2="620" gradientUnits="userSpaceOnUse">
      <stop offset="0" stop-color="#191C23"/>
      <stop offset="0.30" stop-color="#12151C"/>
      <stop offset="0.68" stop-color="#1D1114"/>
      <stop offset="1" stop-color="#3D0F14"/>
    </linearGradient>

    <linearGradient id="redGlowLine" x1="86" y1="320" x2="420" y2="148" gradientUnits="userSpaceOnUse">
      <stop offset="0" stop-color="#FF4A4A"/>
      <stop offset="0.5" stop-color="#FF6D47"/>
      <stop offset="1" stop-color="#FFD16B"/>
    </linearGradient>

    <radialGradient id="topGlow" cx="0" cy="0" r="1" gradientUnits="userSpaceOnUse"
      gradientTransform="translate(360 108) rotate(90) scale(120 160)">
      <stop offset="0" stop-color="#FFF0AF"/>
      <stop offset="0.38" stop-color="#FFB35A" stop-opacity="0.9"/>
      <stop offset="1" stop-color="#FF7A3D" stop-opacity="0"/>
    </radialGradient>

    <radialGradient id="redMist" cx="0" cy="0" r="1" gradientUnits="userSpaceOnUse"
      gradientTransform="translate(202 262) rotate(90) scale(180 240)">
      <stop offset="0" stop-color="#FF493E" stop-opacity="0.24"/>
      <stop offset="1" stop-color="#FF493E" stop-opacity="0"/>
    </radialGradient>

    <linearGradient id="rocketBody" x1="246" y1="146" x2="301" y2="313" gradientUnits="userSpaceOnUse">
      <stop offset="0" stop-color="#F8FBFF"/>
      <stop offset="0.42" stop-color="#E5ECF5"/>
      <stop offset="1" stop-color="#A7B4C6"/>
    </linearGradient>

    <linearGradient id="rocketSide" x1="260" y1="152" x2="289" y2="307" gradientUnits="userSpaceOnUse">
      <stop offset="0" stop-color="#D7E0EA"/>
      <stop offset="1" stop-color="#8A97A9"/>
    </linearGradient>

    <linearGradient id="rocketStroke" x1="229" y1="165" x2="289" y2="311" gradientUnits="userSpaceOnUse">
      <stop offset="0" stop-color="#D3DCE7"/>
      <stop offset="1" stop-color="#7B8697"/>
    </linearGradient>

    <linearGradient id="finRed" x1="204" y1="274" x2="241" y2="321" gradientUnits="userSpaceOnUse">
      <stop offset="0" stop-color="#FF6262"/>
      <stop offset="1" stop-color="#B72C2C"/>
    </linearGradient>

    <linearGradient id="fireOuter" x1="232" y1="357" x2="265" y2="301" gradientUnits="userSpaceOnUse">
      <stop offset="0" stop-color="#FF413C"/>
      <stop offset="0.44" stop-color="#FF8D40"/>
      <stop offset="1" stop-color="#FFE480"/>
    </linearGradient>

    <linearGradient id="fireInner" x1="243" y1="346" x2="260" y2="309" gradientUnits="userSpaceOnUse">
      <stop offset="0" stop-color="#FFD86C"/>
      <stop offset="1" stop-color="#FFF3B0"/>
    </linearGradient>

    <linearGradient id="txtWhite" x1="0" y1="0" x2="0" y2="1">
      <stop offset="0" stop-color="#FFFFFF"/>
      <stop offset="1" stop-color="#EEF2F7"/>
    </linearGradient>

    <filter id="shadowCard" x="0" y="0" width="512" height="640" filterUnits="userSpaceOnUse" color-interpolation-filters="sRGB">
      <feDropShadow dx="0" dy="10" stdDeviation="16" flood-color="#05070B" flood-opacity="0.34"/>
    </filter>

    <filter id="shadowRocket" x="162" y="112" width="188" height="282" filterUnits="userSpaceOnUse" color-interpolation-filters="sRGB">
      <feDropShadow dx="-5" dy="14" stdDeviation="9" flood-color="#000000" flood-opacity="0.34"/>
    </filter>

    <filter id="blurGlow" x="218" y="0" width="260" height="248" filterUnits="userSpaceOnUse" color-interpolation-filters="sRGB">
      <feGaussianBlur stdDeviation="22"/>
    </filter>
  </defs>

  <g filter="url(#shadowCard)">
    <rect x="12" y="12" width="488" height="616" rx="36" fill="url(#cardBg)"/>
  </g>

  <g clip-path="url(#cardClip)">
    <g filter="url(#blurGlow)">
      <ellipse cx="352" cy="96" rx="74" ry="60" fill="url(#topGlow)"/>
    </g>

    <ellipse cx="198" cy="268" rx="150" ry="112" fill="url(#redMist)"/>

    <path d="M20 122C104 83 185 75 258 96C325 115 384 113 500 56V12H12V128C14 126 17 124 20 122Z"
          fill="rgba(255,255,255,0.03)"/>

    <path d="M76 316C132 291 177 264 217 229C260 191 294 153 343 117C379 91 419 74 470 58"
          stroke="url(#redGlowLine)" stroke-opacity="0.95" stroke-width="16" stroke-linecap="round"/>

    <path d="M84 346C143 317 192 286 233 246C273 207 309 166 352 131"
          stroke="url(#redGlowLine)" stroke-opacity="0.28" stroke-width="7" stroke-linecap="round"/>

    <path d="M66 370C118 352 168 323 211 278C250 238 280 197 311 149C336 111 364 81 398 54"
          stroke="#FF7A4A" stroke-opacity="0.34" stroke-width="4" stroke-linecap="round" stroke-dasharray="8 8"/>

    <g filter="url(#shadowRocket)" transform="rotate(-28 258 238)">
      <path d="M257 308C251 316 248 324 248 334C248 343 252 351 258 356C264 351 268 343 268 334C268 324 265 316 259 308L258 305L257 308Z"
            fill="url(#fireOuter)"/>
      <path d="M257.8 316C254.3 321 252.7 327 252.9 333.5C253 339 255 344 258 347.8C261 344 263 338.9 263.1 333.5C263.3 327 261.7 321 258.2 316L258 314.6L257.8 316Z"
            fill="url(#fireInner)"/>

      <path d="M230 272C219.5 279 210.7 288.7 205.4 300.1C216 297.8 225.2 299 233.7 304.2L237.6 289.6L230 272Z"
            fill="url(#finRed)"/>
      <path d="M278.4 289.6L282.3 304.2C290.8 299 300 297.8 310.6 300.1C305.3 288.7 296.5 279 286 272L278.4 289.6Z"
            fill="url(#finRed)"/>

      <path d="M258 132C275.6 157 285.4 189.4 285.4 228.5V294C285.4 305.3 276.3 314.4 265 314.4H251C239.7 314.4 230.6 305.3 230.6 294V228.5C230.6 189.4 240.4 157 258 132Z"
            fill="url(#rocketBody)"/>
      <path d="M258 140C270.3 162.3 277.2 191.4 277.2 227.8V293.2C277.2 300 271.7 305.6 264.8 305.6H258V140Z"
            fill="url(#rocketSide)"/>
      <path d="M258 132C275.6 157 285.4 189.4 285.4 228.5V294C285.4 305.3 276.3 314.4 265 314.4H251C239.7 314.4 230.6 305.3 230.6 294V228.5C230.6 189.4 240.4 157 258 132Z"
            stroke="url(#rocketStroke)" stroke-width="2"/>

      <ellipse cx="258" cy="202" rx="12.3" ry="17.4" fill="#C8D7EA"/>
      <ellipse cx="258" cy="202" rx="7.4" ry="11.3" fill="#ECF5FF"/>

      <path d="M249.5 307.5H266.5L263.7 320H252.3L249.5 307.5Z" fill="#8E99A6"/>
    </g>

    <circle cx="108" cy="138" r="2.2" fill="#FFFFFF" fill-opacity="0.35"/>
    <circle cx="146" cy="104" r="1.8" fill="#FFFFFF" fill-opacity="0.26"/>
    <circle cx="392" cy="188" r="2" fill="#FFFFFF" fill-opacity="0.22"/>
    <circle cx="420" cy="146" r="1.5" fill="#FFFFFF" fill-opacity="0.28"/>

    <text x="256" y="502"
          text-anchor="middle"
          fill="url(#txtWhite)"
          font-family="Arial, Helvetica, sans-serif"
          font-size="68"
          font-weight="900">CRASH</text>

    <text x="256" y="596"
          text-anchor="middle"
          fill="#F4EEF9"
          fill-opacity="0.96"
          font-family="Arial, Helvetica, sans-serif"
          font-size="18"
          font-weight="700"
          letter-spacing="2.8">TRINITI MODE</text>
  </g>

  <rect x="16" y="16" width="480" height="608" rx="32" stroke="#1C2433" stroke-width="3"/>
</svg>