<svg width="64" height="64" viewBox="0 0 64 64" fill="none" xmlns="http://www.w3.org/2000/svg">
  <defs>
    <linearGradient id="bg" x1="8" y1="5" x2="57" y2="60" gradientUnits="userSpaceOnUse">
      <stop offset="0" stop-color="#1A1D24"/>
      <stop offset="0.34" stop-color="#12151C"/>
      <stop offset="0.72" stop-color="#231116"/>
      <stop offset="1" stop-color="#441118"/>
    </linearGradient>

    <linearGradient id="lineGrad" x1="12" y1="42" x2="52" y2="16" gradientUnits="userSpaceOnUse">
      <stop offset="0" stop-color="#FF4848"/>
      <stop offset="0.52" stop-color="#FF7C45"/>
      <stop offset="1" stop-color="#FFD66F"/>
    </linearGradient>

    <radialGradient id="topGlow" cx="0" cy="0" r="1" gradientUnits="userSpaceOnUse"
      gradientTransform="translate(44 16) rotate(90) scale(12 14)">
      <stop offset="0" stop-color="#FFF0AF"/>
      <stop offset="0.45" stop-color="#FFB35A" stop-opacity="0.9"/>
      <stop offset="1" stop-color="#FF7A3D" stop-opacity="0"/>
    </radialGradient>

    <linearGradient id="rocketBody" x1="30" y1="14" x2="34" y2="47" gradientUnits="userSpaceOnUse">
      <stop offset="0" stop-color="#F8FBFF"/>
      <stop offset="0.42" stop-color="#E5ECF5"/>
      <stop offset="1" stop-color="#A7B4C6"/>
    </linearGradient>

    <linearGradient id="rocketSide" x1="32" y1="16" x2="35.6" y2="46" gradientUnits="userSpaceOnUse">
      <stop offset="0" stop-color="#D7E0EA"/>
      <stop offset="1" stop-color="#8A97A9"/>
    </linearGradient>

    <linearGradient id="rocketStroke" x1="27" y1="18" x2="36" y2="46" gradientUnits="userSpaceOnUse">
      <stop offset="0" stop-color="#D3DCE7"/>
      <stop offset="1" stop-color="#7B8697"/>
    </linearGradient>

    <linearGradient id="finRed" x1="21" y1="39" x2="28" y2="47" gradientUnits="userSpaceOnUse">
      <stop offset="0" stop-color="#FF6262"/>
      <stop offset="1" stop-color="#B72C2C"/>
    </linearGradient>

    <linearGradient id="fireOuter" x1="29" y1="54" x2="33.5" y2="44" gradientUnits="userSpaceOnUse">
      <stop offset="0" stop-color="#FF413C"/>
      <stop offset="0.44" stop-color="#FF8D40"/>
      <stop offset="1" stop-color="#FFE480"/>
    </linearGradient>

    <linearGradient id="fireInner" x1="30.4" y1="51" x2="33" y2="45.2" gradientUnits="userSpaceOnUse">
      <stop offset="0" stop-color="#FFD86C"/>
      <stop offset="1" stop-color="#FFF3B0"/>
    </linearGradient>
  </defs>

  <rect x="4" y="4" width="56" height="56" rx="16" fill="url(#bg)"/>

  <ellipse cx="44" cy="16" rx="10" ry="8" fill="url(#topGlow)"/>

  <path d="M13 42C20 39 25 35 30 30C35 25 39 20 45 15"
        stroke="url(#lineGrad)" stroke-width="3.4" stroke-linecap="round"/>
  <path d="M14 46C21 42 27 37 32 31C36 26 40 21 45 17"
        stroke="url(#lineGrad)" stroke-opacity="0.25" stroke-width="1.6" stroke-linecap="round"/>

  <g transform="rotate(-28 32 31)">
    <path d="M32 43.4C30.5 45.3 29.8 47.3 29.8 49.9C29.8 52.1 30.7 54 32 55.1C33.3 54 34.2 52.1 34.2 49.9C34.2 47.3 33.5 45.3 32 43.4L32 42.7L32 43.4Z"
          fill="url(#fireOuter)"/>
    <path d="M32 46C31.1 47.2 30.7 48.7 30.8 50C30.8 51.5 31.4 52.7 32 53.5C32.6 52.7 33.2 51.5 33.2 50C33.3 48.7 32.9 47.2 32 46L32 45.5L32 46Z"
          fill="url(#fireInner)"/>

    <path d="M26 38.7C23.8 40.2 22 42.2 20.8 44.7C23 44.2 24.9 44.5 26.9 45.7L27.7 42.6L26 38.7Z"
          fill="url(#finRed)"/>
    <path d="M36.3 42.6L37.1 45.7C39.1 44.5 41 44.2 43.2 44.7C42 42.2 40.2 40.2 38 38.7L36.3 42.6Z"
          fill="url(#finRed)"/>

    <path d="M32 14C35.1 18.3 36.9 24 36.9 30.8V45.1C36.9 47.5 35 49.4 32.6 49.4H31.4C29 49.4 27.1 47.5 27.1 45.1V30.8C27.1 24 28.9 18.3 32 14Z"
          fill="url(#rocketBody)"/>
    <path d="M32 15.4C34.1 19.4 35.4 24.6 35.4 30.7V45C35.4 46.3 34.4 47.3 33.1 47.3H32V15.4Z"
          fill="url(#rocketSide)"/>
    <path d="M32 14C35.1 18.3 36.9 24 36.9 30.8V45.1C36.9 47.5 35 49.4 32.6 49.4H31.4C29 49.4 27.1 47.5 27.1 45.1V30.8C27.1 24 28.9 18.3 32 14Z"
          stroke="url(#rocketStroke)" stroke-width="1.1"/>

    <ellipse cx="32" cy="25.8" rx="2.8" ry="4" fill="#C8D7EA"/>
    <ellipse cx="32" cy="25.8" rx="1.65" ry="2.45" fill="#ECF5FF"/>

    <path d="M30.3 47.9H33.7L33.1 50.2H30.9L30.3 47.9Z" fill="#8E99A6"/>
  </g>

  <circle cx="15" cy="14" r="1.3" fill="#ffffff" fill-opacity="0.28"/>
  <circle cx="20" cy="18" r="1" fill="#ffffff" fill-opacity="0.20"/>
</svg>