<svg width="128" height="128" viewBox="0 0 128 128" fill="none" xmlns="http://www.w3.org/2000/svg">
  <defs>
    <linearGradient id="iFrontA" x1="8" y1="12" x2="54" y2="68" gradientUnits="userSpaceOnUse">
      <stop stop-color="#FDFEFF"/>
      <stop offset="1" stop-color="#CBD6E8"/>
    </linearGradient>

    <linearGradient id="iTopA" x1="32" y1="0" x2="32" y2="28" gradientUnits="userSpaceOnUse">
      <stop stop-color="#FFFFFF"/>
      <stop offset="1" stop-color="#E0E8F4"/>
    </linearGradient>

    <linearGradient id="iSideA" x1="48" y1="22" x2="78" y2="69" gradientUnits="userSpaceOnUse">
      <stop stop-color="#97A5BE"/>
      <stop offset="1" stop-color="#56637B"/>
    </linearGradient>

    <linearGradient id="iFrontB" x1="3" y1="6" x2="29" y2="40" gradientUnits="userSpaceOnUse">
      <stop stop-color="#FDFEFF"/>
      <stop offset="1" stop-color="#CAD5E7"/>
    </linearGradient>

    <linearGradient id="iTopB" x1="16" y1="0" x2="16" y2="16" gradientUnits="userSpaceOnUse">
      <stop stop-color="#FFFFFF"/>
      <stop offset="1" stop-color="#DFE7F2"/>
    </linearGradient>

    <linearGradient id="iSideB" x1="24" y1="13" x2="42" y2="41" gradientUnits="userSpaceOnUse">
      <stop stop-color="#95A4BD"/>
      <stop offset="1" stop-color="#55627A"/>
    </linearGradient>

    <radialGradient id="iShineA" cx="0" cy="0" r="1" gradientUnits="userSpaceOnUse"
      gradientTransform="translate(36 17) rotate(55) scale(23 12)">
      <stop stop-color="white" stop-opacity="0.72"/>
      <stop offset="1" stop-color="white" stop-opacity="0"/>
    </radialGradient>

    <radialGradient id="iShineB" cx="0" cy="0" r="1" gradientUnits="userSpaceOnUse"
      gradientTransform="translate(15 8) rotate(55) scale(11 6)">
      <stop stop-color="white" stop-opacity="0.7"/>
      <stop offset="1" stop-color="white" stop-opacity="0"/>
    </radialGradient>

    <filter id="iShadowA" x="4" y="16" width="84" height="76" filterUnits="userSpaceOnUse" color-interpolation-filters="sRGB">
      <feDropShadow dx="0" dy="6" stdDeviation="5.5" flood-color="#07101F" flood-opacity="0.38"/>
    </filter>

    <filter id="iShadowB" x="49" y="14" width="46" height="50" filterUnits="userSpaceOnUse" color-interpolation-filters="sRGB">
      <feDropShadow dx="0" dy="5" stdDeviation="4.5" flood-color="#07101F" flood-opacity="0.32"/>
    </filter>
  </defs>

  <ellipse cx="50" cy="92" rx="28" ry="7" fill="#091224" fill-opacity="0.24"/>

  <g transform="translate(55 25) rotate(10)" filter="url(#iShadowB)">
    <polygon points="17,3 31,11 18,18 4,10" fill="url(#iTopB)"/>
    <polygon points="4,10 18,18 18,34 4,26" fill="url(#iFrontB)"/>
    <polygon points="18,18 31,11 31,27 18,34" fill="url(#iSideB)"/>

    <ellipse cx="17" cy="8" rx="7" ry="3" fill="url(#iShineB)"/>

    <circle cx="11" cy="14" r="1.9" fill="#111827"/>
    <circle cx="11" cy="28" r="1.9" fill="#111827"/>

    <circle cx="24" cy="20" r="2.1" fill="#111827"/>
    <circle cx="27" cy="25" r="2.1" fill="#111827"/>
  </g>

  <g transform="translate(22 34) rotate(-10)" filter="url(#iShadowA)">
    <polygon points="31,6 58,21 33,35 5,20" fill="url(#iTopA)"/>
    <polygon points="5,20 33,35 33,69 5,54" fill="url(#iFrontA)"/>
    <polygon points="33,35 58,21 58,55 33,69" fill="url(#iSideA)"/>

    <ellipse cx="35" cy="15" rx="12" ry="4.5" fill="url(#iShineA)"/>

    <circle cx="20" cy="17" r="2.8" fill="#111827"/>
    <circle cx="31" cy="11" r="2.8" fill="#111827"/>
    <circle cx="33" cy="23" r="2.8" fill="#111827"/>
    <circle cx="45" cy="17" r="2.8" fill="#111827"/>

    <circle cx="15" cy="35" r="3" fill="#111827"/>
    <circle cx="23" cy="58" r="3" fill="#111827"/>

    <circle cx="42" cy="39" r="3" fill="#111827"/>
    <circle cx="48" cy="47" r="3" fill="#111827"/>
    <circle cx="53" cy="55" r="3" fill="#111827"/>
  </g>
</svg>