<svg width="128" height="128" viewBox="0 0 128 128" fill="none" xmlns="http://www.w3.org/2000/svg">
  <defs>
    <linearGradient id="bgMini" x1="10" y1="8" x2="114" y2="120" gradientUnits="userSpaceOnUse">
      <stop offset="0" stop-color="#4EA1FF"/>
      <stop offset="0.42" stop-color="#2563EB"/>
      <stop offset="1" stop-color="#0F2A78"/>
    </linearGradient>

    <radialGradient id="miniGlow" cx="0" cy="0" r="1" gradientUnits="userSpaceOnUse"
      gradientTransform="translate(60 28) rotate(90) scale(26 38)">
      <stop stop-color="#D9ECFF" stop-opacity="0.55"/>
      <stop offset="1" stop-color="#D9ECFF" stop-opacity="0"/>
    </radialGradient>

    <linearGradient id="front1" x1="0" y1="0" x2="1" y2="1">
      <stop stop-color="#FFFFFF"/>
      <stop offset="1" stop-color="#CED8E9"/>
    </linearGradient>
    <linearGradient id="top1" x1="0.5" y1="0" x2="0.5" y2="1">
      <stop stop-color="#FFFFFF"/>
      <stop offset="1" stop-color="#E8EEF8"/>
    </linearGradient>
    <linearGradient id="side1" x1="0" y1="0" x2="1" y2="1">
      <stop stop-color="#9CA8BF"/>
      <stop offset="1" stop-color="#5C6981"/>
    </linearGradient>

    <linearGradient id="front2" x1="0" y1="0" x2="1" y2="1">
      <stop stop-color="#FFFFFF"/>
      <stop offset="1" stop-color="#D5DEEC"/>
    </linearGradient>
    <linearGradient id="top2" x1="0.5" y1="0" x2="0.5" y2="1">
      <stop stop-color="#FFFFFF"/>
      <stop offset="1" stop-color="#E6EDF7"/>
    </linearGradient>
    <linearGradient id="side2" x1="0" y1="0" x2="1" y2="1">
      <stop stop-color="#A1ACC1"/>
      <stop offset="1" stop-color="#647086"/>
    </linearGradient>

    <radialGradient id="shine1" cx="0" cy="0" r="1" gradientUnits="userSpaceOnUse"
      gradientTransform="translate(38 16) rotate(32) scale(18 7)">
      <stop stop-color="white" stop-opacity="0.86"/>
      <stop offset="1" stop-color="white" stop-opacity="0"/>
    </radialGradient>

    <radialGradient id="shine2" cx="0" cy="0" r="1" gradientUnits="userSpaceOnUse"
      gradientTransform="translate(82 28) rotate(28) scale(12 5)">
      <stop stop-color="white" stop-opacity="0.8"/>
      <stop offset="1" stop-color="white" stop-opacity="0"/>
    </radialGradient>

    <filter id="shadow1" x="8" y="22" width="78" height="82" filterUnits="userSpaceOnUse">
      <feDropShadow dx="0" dy="6" stdDeviation="5" flood-color="#081121" flood-opacity="0.34"/>
    </filter>

    <filter id="shadow2" x="58" y="20" width="48" height="50" filterUnits="userSpaceOnUse">
      <feDropShadow dx="0" dy="5" stdDeviation="4.5" flood-color="#081121" flood-opacity="0.28"/>
    </filter>
  </defs>

  <rect x="6" y="6" width="116" height="116" rx="28" fill="url(#bgMini)"/>
  <rect x="6.75" y="6.75" width="114.5" height="114.5" rx="27.25" stroke="rgba(255,255,255,.16)" stroke-width="1.5"/>

  <ellipse cx="60" cy="28" rx="34" ry="22" fill="url(#miniGlow)"/>

  <g transform="translate(60 30) rotate(9)" filter="url(#shadow2)">
    <polygon points="20,3 39,14 21,25 2,14" fill="url(#top2)"/>
    <polygon points="2,14 21,25 21,49 2,38" fill="url(#front2)"/>
    <polygon points="21,25 39,14 39,38 21,49" fill="url(#side2)"/>

    <ellipse cx="27" cy="11" rx="8" ry="3.5" fill="url(#shine2)"/>

    <circle cx="20" cy="14" r="2.2" fill="#111827"/>
    <circle cx="8" cy="26" r="2.4" fill="#111827"/>
    <circle cx="15" cy="42" r="2.4" fill="#111827"/>
    <circle cx="30" cy="27" r="2.4" fill="#111827"/>
    <circle cx="34" cy="37" r="2.4" fill="#111827"/>
  </g>

  <g transform="translate(19 35) rotate(-11)" filter="url(#shadow1)">
    <polygon points="29,5 58,22 31,38 2,21" fill="url(#top1)"/>
    <polygon points="2,21 31,38 31,75 2,58" fill="url(#front1)"/>
    <polygon points="31,38 58,22 58,59 31,75" fill="url(#side1)"/>

    <ellipse cx="38" cy="16" rx="14" ry="5.5" fill="url(#shine1)"/>

    <circle cx="18" cy="17" r="2.9" fill="#111827"/>
    <circle cx="30" cy="11" r="2.9" fill="#111827"/>
    <circle cx="34" cy="23" r="2.9" fill="#111827"/>
    <circle cx="46" cy="18" r="2.9" fill="#111827"/>

    <circle cx="12" cy="39" r="3" fill="#111827"/>
    <circle cx="22" cy="63" r="3" fill="#111827"/>

    <circle cx="41" cy="42" r="3" fill="#111827"/>
    <circle cx="48" cy="51" r="3" fill="#111827"/>
    <circle cx="54" cy="60" r="3" fill="#111827"/>
  </g>

  <ellipse cx="52" cy="96" rx="28" ry="5" fill="#091224" fill-opacity="0.18"/>
</svg>