<svg width="128" height="128" viewBox="0 0 128 128" fill="none" xmlns="http://www.w3.org/2000/svg">
  <defs>
    <linearGradient id="bgMini" x1="10" y1="8" x2="118" y2="120" gradientUnits="userSpaceOnUse">
      <stop offset="0" stop-color="#2E84FF"/>
      <stop offset="0.4" stop-color="#1B57D7"/>
      <stop offset="0.72" stop-color="#143995"/>
      <stop offset="1" stop-color="#0B173B"/>
    </linearGradient>

    <radialGradient id="miniGlow" cx="0" cy="0" r="1" gradientUnits="userSpaceOnUse"
      gradientTransform="translate(64 26) rotate(90) scale(42 56)">
      <stop stop-color="#92D5FF" stop-opacity="0.42"/>
      <stop offset="1" stop-color="#92D5FF" stop-opacity="0"/>
    </radialGradient>

    <linearGradient id="miniFrontBig" x1="18" y1="44" x2="58" y2="96" gradientUnits="userSpaceOnUse">
      <stop stop-color="#FCFEFF"/>
      <stop offset="0.58" stop-color="#DCE5F3"/>
      <stop offset="1" stop-color="#A0AEC5"/>
    </linearGradient>

    <linearGradient id="miniTopBig" x1="26" y1="26" x2="48" y2="46" gradientUnits="userSpaceOnUse">
      <stop stop-color="#FFFFFF"/>
      <stop offset="1" stop-color="#E8EEF8"/>
    </linearGradient>

    <linearGradient id="miniSideBig" x1="48" y1="40" x2="74" y2="84" gradientUnits="userSpaceOnUse">
      <stop stop-color="#66738D"/>
      <stop offset="1" stop-color="#273247"/>
    </linearGradient>

    <linearGradient id="miniFrontSmall" x1="64" y1="28" x2="92" y2="64" gradientUnits="userSpaceOnUse">
      <stop stop-color="#FCFEFF"/>
      <stop offset="0.58" stop-color="#DCE5F3"/>
      <stop offset="1" stop-color="#A2B0C7"/>
    </linearGradient>

    <linearGradient id="miniTopSmall" x1="68" y1="18" x2="84" y2="30" gradientUnits="userSpaceOnUse">
      <stop stop-color="#FFFFFF"/>
      <stop offset="1" stop-color="#E8EEF8"/>
    </linearGradient>

    <linearGradient id="miniSideSmall" x1="82" y1="28" x2="100" y2="58" gradientUnits="userSpaceOnUse">
      <stop stop-color="#67758E"/>
      <stop offset="1" stop-color="#293449"/>
    </linearGradient>

    <linearGradient id="miniRingGold" x1="26" y1="62" x2="102" y2="62" gradientUnits="userSpaceOnUse">
      <stop offset="0" stop-color="#B78F46"/>
      <stop offset="0.22" stop-color="#F7E2A0"/>
      <stop offset="0.5" stop-color="#C79C4C"/>
      <stop offset="0.8" stop-color="#F7E2A0"/>
      <stop offset="1" stop-color="#A87936"/>
    </linearGradient>

    <filter id="miniShadowBig" x="4" y="20" width="78" height="82" filterUnits="userSpaceOnUse" color-interpolation-filters="sRGB">
      <feDropShadow dx="0" dy="6" stdDeviation="5" flood-color="#081121" flood-opacity="0.38"/>
    </filter>

    <filter id="miniShadowSmall" x="54" y="14" width="54" height="54" filterUnits="userSpaceOnUse" color-interpolation-filters="sRGB">
      <feDropShadow dx="0" dy="5" stdDeviation="4.5" flood-color="#081121" flood-opacity="0.28"/>
    </filter>
  </defs>

  <rect x="4" y="4" width="120" height="120" rx="28" fill="url(#bgMini)"/>
  <rect x="4.75" y="4.75" width="118.5" height="118.5" rx="27.25" stroke="rgba(255,255,255,0.10)" stroke-width="1.5"/>

  <ellipse cx="64" cy="26" rx="42" ry="56" fill="url(#miniGlow)"/>

  <path d="M22 66C22 54 32 44 48 44C57 44 65 46 71 51C78 56 86 59 96 59"
        stroke="url(#miniRingGold)" stroke-width="7" stroke-linecap="round" fill="none"/>
  <path d="M90 74C84 80 76 84 66 84C57 84 49 82 43 77C37 72 30 70 22 70"
        stroke="rgba(255,255,255,0.74)" stroke-width="6" stroke-linecap="round" fill="none"/>

  <g transform="translate(66 20) rotate(9)" filter="url(#miniShadowSmall)">
    <polygon points="14,3 32,14 15,23 -3,13" fill="url(#miniTopSmall)"/>
    <polygon points="-3,13 15,23 15,46 -3,36" fill="url(#miniFrontSmall)"/>
    <polygon points="15,23 32,14 32,37 15,46" fill="url(#miniSideSmall)"/>

    <circle cx="8" cy="12" r="2.3" fill="#111827"/>
    <circle cx="19" cy="16" r="2.3" fill="#111827"/>
    <circle cx="6" cy="27" r="2.5" fill="#111827"/>
    <circle cx="21" cy="27" r="2.5" fill="#111827"/>
  </g>

  <g transform="translate(20 30) rotate(-12)" filter="url(#miniShadowBig)">
    <polygon points="28,4 58,21 31,37 1,20" fill="url(#miniTopBig)"/>
    <polygon points="1,20 31,37 31,75 1,58" fill="url(#miniFrontBig)"/>
    <polygon points="31,37 58,21 58,59 31,75" fill="url(#miniSideBig)"/>

    <circle cx="9" cy="39" r="3" fill="#111827"/>
    <circle cx="19" cy="63" r="3" fill="#111827"/>

    <circle cx="15" cy="16" r="2.9" fill="#111827"/>
    <circle cx="29" cy="10" r="2.9" fill="#111827"/>
    <circle cx="35" cy="22" r="2.9" fill="#111827"/>
    <circle cx="49" cy="17" r="2.9" fill="#111827"/>

    <circle cx="41" cy="42" r="3" fill="#111827"/>
    <circle cx="48" cy="51" r="3" fill="#111827"/>
    <circle cx="54" cy="60" r="3" fill="#111827"/>
  </g>
</svg>