<svg width="128" height="128" viewBox="0 0 128 128" fill="none" xmlns="http://www.w3.org/2000/svg">
  <defs>
    <linearGradient id="tileBg" x1="14" y1="10" x2="112" y2="118" gradientUnits="userSpaceOnUse">
      <stop stop-color="#225DDA"/>
      <stop offset="0.55" stop-color="#153A8A"/>
      <stop offset="1" stop-color="#0A1636"/>
    </linearGradient>

    <linearGradient id="miniFront" x1="0" y1="0" x2="1" y2="1">
      <stop stop-color="#F7FAFF"/>
      <stop offset="1" stop-color="#C9D4E9"/>
    </linearGradient>

    <linearGradient id="miniTop" x1="0.5" y1="0" x2="0.5" y2="1">
      <stop stop-color="#FFFFFF"/>
      <stop offset="1" stop-color="#D9E2F2"/>
    </linearGradient>

    <linearGradient id="miniSide" x1="0" y1="0" x2="1" y2="1">
      <stop stop-color="#8694AC"/>
      <stop offset="1" stop-color="#4B5972"/>
    </linearGradient>

    <filter id="miniShadow" x="-30%" y="-30%" width="160%" height="160%">
      <feDropShadow dx="0" dy="8" stdDeviation="8" flood-color="#070F20" flood-opacity="0.5"/>
    </filter>
  </defs>

  <rect x="6" y="6" width="116" height="116" rx="28" fill="url(#tileBg)"/>
  <rect x="6.75" y="6.75" width="114.5" height="114.5" rx="27.25" stroke="rgba(255,255,255,.16)" stroke-width="1.5"/>

  <g transform="translate(26 20) rotate(-10)" filter="url(#miniShadow)">
    <polygon points="36,8 74,30 39,50 2,28" fill="url(#miniTop)"/>
    <polygon points="2,28 39,50 39,95 2,73" fill="url(#miniFront)"/>
    <polygon points="39,50 74,30 74,75 39,95" fill="url(#miniSide)"/>

    <circle cx="20" cy="49" r="4.8" fill="#111826"/>
    <circle cx="20" cy="72" r="4.8" fill="#111826"/>

    <circle cx="51" cy="58" r="4.8" fill="#111826"/>
    <circle cx="59" cy="70" r="4.8" fill="#111826"/>
    <circle cx="66" cy="82" r="4.8" fill="#111826"/>
  </g>

  <g transform="translate(58 16) rotate(10)" filter="url(#miniShadow)">
    <polygon points="20,6 44,20 22,33 -2,19" fill="url(#miniTop)"/>
    <polygon points="-2,19 22,33 22,60 -2,46" fill="url(#miniFront)"/>
    <polygon points="22,33 44,20 44,47 22,60" fill="url(#miniSide)"/>

    <circle cx="9" cy="28" r="3.8" fill="#111826"/>
    <circle cx="32" cy="38" r="4.1" fill="#111826"/>
  </g>
</svg>