<svg width="512" height="640" viewBox="0 0 512 640" fill="none" xmlns="http://www.w3.org/2000/svg">
  <defs>
    <linearGradient id="bg" x1="64" y1="24" x2="440" y2="616" gradientUnits="userSpaceOnUse">
      <stop offset="0" stop-color="#4A90FF"/>
      <stop offset="0.38" stop-color="#2563EB"/>
      <stop offset="1" stop-color="#102A7A"/>
    </linearGradient>

    <radialGradient id="glowTop" cx="0" cy="0" r="1" gradientUnits="userSpaceOnUse"
      gradientTransform="translate(250 120) rotate(90) scale(170 240)">
      <stop stop-color="#BFE0FF" stop-opacity="0.5"/>
      <stop offset="1" stop-color="#BFE0FF" stop-opacity="0"/>
    </radialGradient>

    <linearGradient id="wave1" x1="78" y1="110" x2="420" y2="210" gradientUnits="userSpaceOnUse">
      <stop stop-color="white" stop-opacity="0.15"/>
      <stop offset="1" stop-color="white" stop-opacity="0.02"/>
    </linearGradient>

    <linearGradient id="wave2" x1="50" y1="180" x2="450" y2="300" gradientUnits="userSpaceOnUse">
      <stop stop-color="white" stop-opacity="0.1"/>
      <stop offset="1" stop-color="white" stop-opacity="0"/>
    </linearGradient>

    <linearGradient id="cubeFront" x1="145" y1="220" x2="280" y2="382" gradientUnits="userSpaceOnUse">
      <stop stop-color="#FFFFFF"/>
      <stop offset="1" stop-color="#C9D4E8"/>
    </linearGradient>

    <linearGradient id="cubeTop" x1="152" y1="150" x2="248" y2="216" gradientUnits="userSpaceOnUse">
      <stop stop-color="#FFFFFF"/>
      <stop offset="1" stop-color="#E5EDF9"/>
    </linearGradient>

    <linearGradient id="cubeSide" x1="250" y1="220" x2="352" y2="376" gradientUnits="userSpaceOnUse">
      <stop stop-color="#9AA8C2"/>
      <stop offset="1" stop-color="#56657D"/>
    </linearGradient>

    <radialGradient id="cubeShine" cx="0" cy="0" r="1" gradientUnits="userSpaceOnUse"
      gradientTransform="translate(220 202) rotate(35) scale(74 34)">
      <stop stop-color="white" stop-opacity="0.95"/>
      <stop offset="1" stop-color="white" stop-opacity="0"/>
    </radialGradient>

    <filter id="cardShadow" x="0" y="0" width="512" height="640" filterUnits="userSpaceOnUse">
      <feDropShadow dx="0" dy="20" stdDeviation="20" flood-color="#050B1E" flood-opacity="0.35"/>
    </filter>

    <filter id="cubeShadow" x="82" y="120" width="296" height="320" filterUnits="userSpaceOnUse">
      <feDropShadow dx="0" dy="24" stdDeviation="16" flood-color="#081325" flood-opacity="0.38"/>
    </filter>
  </defs>

  <g filter="url(#cardShadow)">
    <rect x="16" y="16" width="480" height="608" rx="34" fill="url(#bg)"/>
  </g>

  <rect x="16.75" y="16.75" width="478.5" height="606.5" rx="33.25" stroke="rgba(255,255,255,.16)" stroke-width="1.5"/>

  <ellipse cx="254" cy="128" rx="184" ry="126" fill="url(#glowTop)"/>

  <path d="M34 130C92 90 160 84 226 104C302 127 376 124 480 64V150C404 194 324 201 236 176C160 154 102 152 34 196V130Z"
        fill="url(#wave1)"/>
  <path d="M30 214C114 178 190 184 258 204C330 225 392 220 482 174V246C400 286 326 287 252 262C178 238 110 238 30 278V214Z"
        fill="url(#wave2)"/>

  <g filter="url(#cubeShadow)">
    <polygon points="208,156 300,210 212,260 122,208" fill="url(#cubeTop)"/>
    <polygon points="122,208 212,260 212,386 122,332" fill="url(#cubeFront)"/>
    <polygon points="212,260 300,210 300,336 212,386" fill="url(#cubeSide)"/>

    <ellipse cx="222" cy="206" rx="62" ry="24" fill="url(#cubeShine)"/>

    <path d="M122 208L212 260L300 210" stroke="rgba(124,141,170,.28)" stroke-width="2.2"/>
    <path d="M212 260V386" stroke="rgba(82,93,116,.22)" stroke-width="2"/>

    <circle cx="166" cy="202" r="8.2" fill="#111827"/>
    <circle cx="202" cy="182" r="8.2" fill="#111827"/>
    <circle cx="232" cy="220" r="8.2" fill="#111827"/>
    <circle cx="266" cy="198" r="8.2" fill="#111827"/>

    <circle cx="154" cy="250" r="9" fill="#111827"/>
    <circle cx="182" cy="332" r="9" fill="#111827"/>

    <circle cx="242" cy="284" r="9" fill="#111827"/>
    <circle cx="258" cy="304" r="9" fill="#111827"/>
    <circle cx="274" cy="324" r="9" fill="#111827"/>
  </g>

  <ellipse cx="218" cy="412" rx="114" ry="22" fill="#091224" fill-opacity="0.22"/>
</svg>