<svg width="512" height="512" viewBox="0 0 512 512" fill="none" xmlns="http://www.w3.org/2000/svg">
  <defs>
    <linearGradient id="frontA" x1="16" y1="18" x2="142" y2="182" gradientUnits="userSpaceOnUse">
      <stop stop-color="#FCFEFF"/>
      <stop offset="1" stop-color="#CBD6E8"/>
    </linearGradient>

    <linearGradient id="topA" x1="72" y1="0" x2="72" y2="74" gradientUnits="userSpaceOnUse">
      <stop stop-color="#FFFFFF"/>
      <stop offset="1" stop-color="#E2EAF6"/>
    </linearGradient>

    <linearGradient id="sideA" x1="98" y1="58" x2="170" y2="184" gradientUnits="userSpaceOnUse">
      <stop stop-color="#95A4BD"/>
      <stop offset="1" stop-color="#55637D"/>
    </linearGradient>

    <linearGradient id="frontB" x1="14" y1="16" x2="128" y2="156" gradientUnits="userSpaceOnUse">
      <stop stop-color="#FDFEFF"/>
      <stop offset="1" stop-color="#D0DAEA"/>
    </linearGradient>

    <linearGradient id="topB" x1="66" y1="0" x2="66" y2="68" gradientUnits="userSpaceOnUse">
      <stop stop-color="#FFFFFF"/>
      <stop offset="1" stop-color="#E3EAF5"/>
    </linearGradient>

    <linearGradient id="sideB" x1="88" y1="52" x2="154" y2="166" gradientUnits="userSpaceOnUse">
      <stop stop-color="#97A6BE"/>
      <stop offset="1" stop-color="#596680"/>
    </linearGradient>

    <radialGradient id="shineA" cx="0" cy="0" r="1" gradientUnits="userSpaceOnUse"
      gradientTransform="translate(104 54) rotate(40) scale(76 34)">
      <stop stop-color="white" stop-opacity="0.82"/>
      <stop offset="1" stop-color="white" stop-opacity="0"/>
    </radialGradient>

    <radialGradient id="shineB" cx="0" cy="0" r="1" gradientUnits="userSpaceOnUse"
      gradientTransform="translate(92 48) rotate(38) scale(66 30)">
      <stop stop-color="white" stop-opacity="0.7"/>
      <stop offset="1" stop-color="white" stop-opacity="0"/>
    </radialGradient>

    <filter id="shadowA" x="34" y="88" width="256" height="258" filterUnits="userSpaceOnUse" color-interpolation-filters="sRGB">
      <feDropShadow dx="0" dy="18" stdDeviation="18" flood-color="#07101F" flood-opacity="0.38"/>
    </filter>

    <filter id="shadowB" x="192" y="76" width="228" height="236" filterUnits="userSpaceOnUse" color-interpolation-filters="sRGB">
      <feDropShadow dx="0" dy="16" stdDeviation="16" flood-color="#07101F" flood-opacity="0.32"/>
    </filter>

    <filter id="ground" x="92" y="292" width="268" height="60" filterUnits="userSpaceOnUse" color-interpolation-filters="sRGB">
      <feGaussianBlur stdDeviation="10"/>
    </filter>
  </defs>

  <ellipse cx="226" cy="322" rx="114" ry="20" fill="#091224" fill-opacity="0.28" filter="url(#ground)"/>

  <!-- back cube -->
  <g transform="translate(238 118) rotate(9)" filter="url(#shadowB)">
    <polygon points="66,12 132,50 70,86 4,48" fill="url(#topB)"/>
    <polygon points="4,48 70,86 70,170 4,132" fill="url(#frontB)"/>
    <polygon points="70,86 132,50 132,134 70,170" fill="url(#sideB)"/>

    <path d="M12 54L70 89" stroke="#B2BED1" stroke-opacity="0.38" stroke-width="2"/>
    <path d="M70 89L126 56" stroke="#8391AB" stroke-opacity="0.34" stroke-width="2"/>

    <ellipse cx="84" cy="42" rx="34" ry="14" fill="url(#shineB)"/>

    <!-- top 1 -->
    <circle cx="70" cy="46" r="6.8" fill="#111827"/>

    <!-- front 2 -->
    <circle cx="28" cy="86" r="7.3" fill="#111827"/>
    <circle cx="46" cy="134" r="7.3" fill="#111827"/>

    <!-- side 2 -->
    <circle cx="100" cy="98" r="7.3" fill="#111827"/>
    <circle cx="116" cy="130" r="7.3" fill="#111827"/>
  </g>

  <!-- front cube -->
  <g transform="translate(94 132) rotate(-12)" filter="url(#shadowA)">
    <polygon points="74,14 146,56 79,95 6,53" fill="url(#topA)"/>
    <polygon points="6,53 79,95 79,188 6,146" fill="url(#frontA)"/>
    <polygon points="79,95 146,56 146,150 79,188" fill="url(#sideA)"/>

    <path d="M14 58L79 98" stroke="#AFBDD0" stroke-opacity="0.4" stroke-width="2.2"/>
    <path d="M79 98L139 61" stroke="#7F8EA9" stroke-opacity="0.34" stroke-width="2.2"/>

    <ellipse cx="96" cy="46" rx="40" ry="16" fill="url(#shineA)"/>

    <!-- top 4 -->
    <circle cx="44" cy="40" r="7.6" fill="#111827"/>
    <circle cx="74" cy="26" r="7.6" fill="#111827"/>
    <circle cx="83" cy="57" r="7.6" fill="#111827"/>
    <circle cx="114" cy="44" r="7.6" fill="#111827"/>

    <!-- front 2 -->
    <circle cx="28" cy="100" r="8.2" fill="#111827"/>
    <circle cx="52" cy="161" r="8.2" fill="#111827"/>

    <!-- side 3 -->
    <circle cx="103" cy="108" r="8.2" fill="#111827"/>
    <circle cx="117" cy="129" r="8.2" fill="#111827"/>
    <circle cx="131" cy="150" r="8.2" fill="#111827"/>
  </g>
</svg>