<svg width="128" height="128" viewBox="0 0 128 128" fill="none" xmlns="http://www.w3.org/2000/svg">
  <defs>
    <linearGradient id="if1" x1="6" y1="8" x2="54" y2="72" gradientUnits="userSpaceOnUse">
      <stop stop-color="#FFFFFF"/>
      <stop offset="1" stop-color="#CED8E9"/>
    </linearGradient>
    <linearGradient id="it1" x1="30" y1="0" x2="30" y2="28" gradientUnits="userSpaceOnUse">
      <stop stop-color="#FFFFFF"/>
      <stop offset="1" stop-color="#E8EEF8"/>
    </linearGradient>
    <linearGradient id="is1" x1="40" y1="22" x2="68" y2="70" gradientUnits="userSpaceOnUse">
      <stop stop-color="#9CA8BF"/>
      <stop offset="1" stop-color="#5C6981"/>
    </linearGradient>

    <linearGradient id="if2" x1="4" y1="4" x2="38" y2="50" gradientUnits="userSpaceOnUse">
      <stop stop-color="#FFFFFF"/>
      <stop offset="1" stop-color="#D5DEEC"/>
    </linearGradient>
    <linearGradient id="it2" x1="20" y1="0" x2="20" y2="20" gradientUnits="userSpaceOnUse">
      <stop stop-color="#FFFFFF"/>
      <stop offset="1" stop-color="#E6EDF7"/>
    </linearGradient>
    <linearGradient id="is2" x1="28" y1="16" x2="46" y2="48" gradientUnits="userSpaceOnUse">
      <stop stop-color="#A1ACC1"/>
      <stop offset="1" stop-color="#647086"/>
    </linearGradient>

    <radialGradient id="ihl1" cx="0" cy="0" r="1" gradientUnits="userSpaceOnUse"
      gradientTransform="translate(38 16) rotate(32) scale(18 7)">
      <stop stop-color="white" stop-opacity="0.86"/>
      <stop offset="1" stop-color="white" stop-opacity="0"/>
    </radialGradient>

    <radialGradient id="ihl2" cx="0" cy="0" r="1" gradientUnits="userSpaceOnUse"
      gradientTransform="translate(28 12) rotate(30) scale(12 5)">
      <stop stop-color="white" stop-opacity="0.78"/>
      <stop offset="1" stop-color="white" stop-opacity="0"/>
    </radialGradient>

    <filter id="ids1" x="8" y="22" width="78" height="82" filterUnits="userSpaceOnUse" color-interpolation-filters="sRGB">
      <feDropShadow dx="0" dy="6" stdDeviation="5" flood-color="#081121" flood-opacity="0.38"/>
    </filter>

    <filter id="ids2" x="58" y="24" width="48" height="50" filterUnits="userSpaceOnUse" color-interpolation-filters="sRGB">
      <feDropShadow dx="0" dy="5" stdDeviation="4.5" flood-color="#081121" flood-opacity="0.3"/>
    </filter>
  </defs>

  <ellipse cx="52" cy="95" rx="28" ry="6" fill="#091224" fill-opacity="0.22"/>

  <g transform="translate(60 30) rotate(9)" filter="url(#ids2)">
    <polygon points="20,3 39,14 21,25 2,14" fill="url(#it2)"/>
    <polygon points="2,14 21,25 21,49 2,38" fill="url(#if2)"/>
    <polygon points="21,25 39,14 39,38 21,49" fill="url(#is2)"/>

    <ellipse cx="27" cy="11" rx="8" ry="3.5" fill="url(#ihl2)"/>

    <circle cx="20" cy="14" r="2.2" fill="#111827"/>
    <circle cx="8" cy="26" r="2.4" fill="#111827"/>
    <circle cx="15" cy="42" r="2.4" fill="#111827"/>
    <circle cx="30" cy="27" r="2.4" fill="#111827"/>
    <circle cx="34" cy="37" r="2.4" fill="#111827"/>
  </g>

  <g transform="translate(19 35) rotate(-11)" filter="url(#ids1)">
    <polygon points="29,5 58,22 31,38 2,21" fill="url(#it1)"/>
    <polygon points="2,21 31,38 31,75 2,58" fill="url(#if1)"/>
    <polygon points="31,38 58,22 58,59 31,75" fill="url(#is1)"/>

    <ellipse cx="38" cy="16" rx="14" ry="5.5" fill="url(#ihl1)"/>

    <circle cx="18" cy="17" r="2.9" fill="#111827"/>
    <circle cx="30" cy="11" r="2.9" fill="#111827"/>
    <circle cx="34" cy="23" r="2.9" fill="#111827"/>
    <circle cx="46" cy="18" r="2.9" fill="#111827"/>

    <circle cx="12" cy="39" r="3" fill="#111827"/>
    <circle cx="22" cy="63" r="3" fill="#111827"/>

    <circle cx="41" cy="42" r="3" fill="#111827"/>
    <circle cx="48" cy="51" r="3" fill="#111827"/>
    <circle cx="54" cy="60" r="3" fill="#111827"/>
  </g>
</svg>