<svg width="64" height="64" viewBox="0 0 64 64" fill="none" xmlns="http://www.w3.org/2000/svg">
  <defs>
    <linearGradient id="miniBg" x1="8" y1="6" x2="58" y2="58" gradientUnits="userSpaceOnUse">
      <stop offset="0" stop-color="#2D73F2"/>
      <stop offset="0.52" stop-color="#183F98"/>
      <stop offset="1" stop-color="#0A173D"/>
    </linearGradient>

    <linearGradient id="frontBig" x1="6" y1="8" x2="54" y2="74" gradientUnits="userSpaceOnUse">
      <stop stop-color="#FFFFFF"/>
      <stop offset="1" stop-color="#D4DDEC"/>
    </linearGradient>
    <linearGradient id="topBig" x1="30" y1="0" x2="30" y2="30" gradientUnits="userSpaceOnUse">
      <stop stop-color="#FFFFFF"/>
      <stop offset="1" stop-color="#E8EEF8"/>
    </linearGradient>
    <linearGradient id="sideBig" x1="38" y1="22" x2="68" y2="74" gradientUnits="userSpaceOnUse">
      <stop stop-color="#8A97AE"/>
      <stop offset="1" stop-color="#4E5C74"/>
    </linearGradient>

    <linearGradient id="frontSmall" x1="2" y1="2" x2="38" y2="48" gradientUnits="userSpaceOnUse">
      <stop stop-color="#FFFFFF"/>
      <stop offset="1" stop-color="#D7E0EE"/>
    </linearGradient>
    <linearGradient id="topSmall" x1="20" y1="0" x2="20" y2="22" gradientUnits="userSpaceOnUse">
      <stop stop-color="#FFFFFF"/>
      <stop offset="1" stop-color="#E8EEF8"/>
    </linearGradient>
    <linearGradient id="sideSmall" x1="24" y1="14" x2="42" y2="48" gradientUnits="userSpaceOnUse">
      <stop stop-color="#97A4B9"/>
      <stop offset="1" stop-color="#59667D"/>
    </linearGradient>

    <radialGradient id="shine1" cx="0" cy="0" r="1" gradientUnits="userSpaceOnUse"
      gradientTransform="translate(38 16) rotate(28) scale(16 6)">
      <stop stop-color="white" stop-opacity="0.82"/>
      <stop offset="1" stop-color="white" stop-opacity="0"/>
    </radialGradient>

    <radialGradient id="shine2" cx="0" cy="0" r="1" gradientUnits="userSpaceOnUse"
      gradientTransform="translate(28 12) rotate(28) scale(10 4)">
      <stop stop-color="white" stop-opacity="0.78"/>
      <stop offset="1" stop-color="white" stop-opacity="0"/>
    </radialGradient>

    <filter id="miniShadow1" x="8" y="20" width="80" height="82" filterUnits="userSpaceOnUse" color-interpolation-filters="sRGB">
      <feDropShadow dx="0" dy="6" stdDeviation="5" flood-color="#081121" flood-opacity="0.38"/>
    </filter>

    <filter id="miniShadow2" x="56" y="24" width="50" height="52" filterUnits="userSpaceOnUse" color-interpolation-filters="sRGB">
      <feDropShadow dx="0" dy="5" stdDeviation="4.5" flood-color="#081121" flood-opacity="0.30"/>
    </filter>
  </defs>

  <rect x="4" y="4" width="56" height="56" rx="16" fill="url(#miniBg)"/>
  <rect x="4.5" y="4.5" width="55" height="55" rx="15.5" stroke="#20458D"/>

  <ellipse cx="34" cy="48" rx="16" ry="4.8" fill="#091224" fill-opacity="0.22"/>

  <!-- back -->
  <g transform="translate(39 18) rotate(9)" filter="url(#miniShadow2)">
    <polygon points="12,2 24,9 13,16 1,9" fill="url(#topSmall)"/>
    <polygon points="1,9 13,16 13,31 1,24" fill="url(#frontSmall)"/>
    <polygon points="13,16 24,9 24,24 13,31" fill="url(#sideSmall)"/>

    <ellipse cx="16" cy="7" rx="6" ry="2.4" fill="url(#shine2)"/>

    <circle cx="12.5" cy="8.5" r="1.4" fill="#111827"/>
    <circle cx="5" cy="17" r="1.6" fill="#111827"/>
    <circle cx="9" cy="27" r="1.6" fill="#111827"/>
    <circle cx="17.5" cy="17.5" r="1.6" fill="#111827"/>
    <circle cx="21.2" cy="24" r="1.6" fill="#111827"/>
  </g>

  <!-- front -->
  <g transform="translate(16 22) rotate(-11)" filter="url(#miniShadow1)">
    <polygon points="16,3 32,12 17,21 1,12" fill="url(#topBig)"/>
    <polygon points="1,12 17,21 17,42 1,33" fill="url(#frontBig)"/>
    <polygon points="17,21 32,12 32,33 17,42" fill="url(#sideBig)"/>

    <ellipse cx="21" cy="9" rx="9" ry="3.5" fill="url(#shine1)"/>

    <!-- top 4 -->
    <circle cx="10" cy="9.5" r="1.8" fill="#111827"/>
    <circle cx="16.5" cy="6.3" r="1.8" fill="#111827"/>
    <circle cx="18" cy="12.5" r="1.8" fill="#111827"/>
    <circle cx="24.7" cy="9.3" r="1.8" fill="#111827"/>

    <!-- front 1 -->
    <circle cx="9.5" cy="27" r="2" fill="#111827"/>

    <!-- side 4 -->
    <circle cx="22" cy="22.5" r="2" fill="#111827"/>
    <circle cx="27.2" cy="24.8" r="2" fill="#111827"/>
    <circle cx="21.5" cy="35.2" r="2" fill="#111827"/>
    <circle cx="26.8" cy="37.4" r="2" fill="#111827"/>
  </g>
</svg>