<svg width="64" height="64" viewBox="0 0 64 64" fill="none" xmlns="http://www.w3.org/2000/svg">
  <defs>
    <linearGradient id="bg" x1="8" y1="5" x2="57" y2="60" gradientUnits="userSpaceOnUse">
      <stop offset="0" stop-color="#1DFFB7"/>
      <stop offset="0.18" stop-color="#19D8D8"/>
      <stop offset="0.48" stop-color="#1179FF"/>
      <stop offset="1" stop-color="#0A3CA8"/>
    </linearGradient>

    <radialGradient id="glow" cx="0" cy="0" r="1" gradientUnits="userSpaceOnUse"
      gradientTransform="translate(38 31) rotate(90) scale(18 18)">
      <stop offset="0" stop-color="#91FFF2"/>
      <stop offset="0.46" stop-color="#4CF4E3" stop-opacity="0.68"/>
      <stop offset="1" stop-color="#4CF4E3" stop-opacity="0"/>
    </radialGradient>

    <linearGradient id="bombMain" x1="26" y1="20" x2="42" y2="43" gradientUnits="userSpaceOnUse">
      <stop offset="0" stop-color="#123A8C"/>
      <stop offset="0.45" stop-color="#0A2B6C"/>
      <stop offset="1" stop-color="#081A44"/>
    </linearGradient>

    <linearGradient id="bombBack" x1="18" y1="25" x2="30" y2="42" gradientUnits="userSpaceOnUse">
      <stop offset="0" stop-color="#15448D"/>
      <stop offset="0.5" stop-color="#0C2F6A"/>
      <stop offset="1" stop-color="#081D47"/>
    </linearGradient>

    <linearGradient id="metal" x1="34" y1="17" x2="41" y2="23" gradientUnits="userSpaceOnUse">
      <stop offset="0" stop-color="#36455F"/>
      <stop offset="1" stop-color="#0E1828"/>
    </linearGradient>

    <linearGradient id="fuse" x1="40" y1="15" x2="44" y2="20" gradientUnits="userSpaceOnUse">
      <stop offset="0" stop-color="#C8CDD7"/>
      <stop offset="1" stop-color="#727E90"/>
    </linearGradient>
  </defs>

  <rect x="4" y="4" width="56" height="56" rx="16" fill="url(#bg)"/>

  <ellipse cx="38" cy="31" rx="16" ry="16" fill="url(#glow)"/>

  <!-- star -->
  <path d="M47 28L49.5 32.4L54.5 33.3L50.8 36.9L51.5 41.8L47 39.4L42.5 41.8L43.2 36.9L39.5 33.3L44.5 32.4L47 28Z"
        fill="#B7FFF6" fill-opacity="0.95"/>

  <!-- back bomb -->
  <ellipse cx="24" cy="34" rx="10" ry="10" fill="url(#bombBack)"/>
  <path d="M20.8 25H26.6L28.9 28H23.1L20.8 25Z" fill="url(#metal)"/>
  <rect x="25.6" y="22.3" width="1.2" height="5.8" rx="0.6" transform="rotate(-46 25.6 22.3)" fill="url(#fuse)"/>

  <!-- front bomb -->
  <ellipse cx="36" cy="34" rx="14" ry="14" fill="url(#bombMain)"/>
  <path d="M31.6 22H39.8L42.7 26.1H34.5L31.6 22Z" fill="url(#metal)"/>
  <rect x="39.2" y="18.7" width="1.5" height="8" rx="0.75" transform="rotate(-45 39.2 18.7)" fill="url(#fuse)"/>
  <ellipse cx="34.2" cy="28" rx="4.3" ry="3.5" fill="#4FD9FF" fill-opacity="0.24"/>

  <circle cx="18" cy="18" r="1.2" fill="#D7FFFF" fill-opacity="0.55"/>
</svg>