<svg width="64" height="64" viewBox="0 0 64 64" fill="none" xmlns="http://www.w3.org/2000/svg">
  <defs>
    <linearGradient id="penaltyIconUltraBg" x1="32" y1="4" x2="32" y2="60" gradientUnits="userSpaceOnUse">
      <stop offset="0" stop-color="#2CC53A"/>
      <stop offset="0.46" stop-color="#168A21"/>
      <stop offset="1" stop-color="#0B3A11"/>
    </linearGradient>

    <radialGradient id="penaltyIconTopGlow" cx="0" cy="0" r="1" gradientUnits="userSpaceOnUse"
      gradientTransform="translate(32 20) rotate(90) scale(18 18)">
      <stop offset="0" stop-color="#BFFFBA" stop-opacity="0.24"/>
      <stop offset="1" stop-color="#BFFFBA" stop-opacity="0"/>
    </radialGradient>

    <filter id="penaltyIconUltraShadow" x="0" y="0" width="64" height="64" filterUnits="userSpaceOnUse" color-interpolation-filters="sRGB">
      <feDropShadow dx="0" dy="5" stdDeviation="5" flood-color="#091D0B" flood-opacity="0.24"/>
    </filter>

    <radialGradient id="iconBallUltraBase" cx="0" cy="0" r="1" gradientUnits="userSpaceOnUse"
      gradientTransform="translate(24 22) rotate(38) scale(24 24)">
      <stop offset="0" stop-color="#FFFFFF"/>
      <stop offset="0.55" stop-color="#F2F5F3"/>
      <stop offset="1" stop-color="#C7D0CB"/>
    </radialGradient>

    <linearGradient id="iconPanelUltra" x1="0" y1="0" x2="1" y2="1">
      <stop offset="0" stop-color="#344139"/>
      <stop offset="1" stop-color="#090C0A"/>
    </linearGradient>
  </defs>

  <g filter="url(#penaltyIconUltraShadow)">
    <rect x="4" y="4" width="56" height="56" rx="16" fill="url(#penaltyIconUltraBg)"/>
  </g>

  <ellipse cx="32" cy="20" rx="18" ry="11.5" fill="url(#penaltyIconTopGlow)"/>

  <g>
    <circle cx="32" cy="31" r="15.4" fill="url(#iconBallUltraBase)"/>
    <path d="M32 23.7L36.7 27.2L35 32.7H29L27.3 27.2L32 23.7Z" fill="url(#iconPanelUltra)"/>
    <path d="M21.3 22.1L26.8 21.2L27.3 27.2L22.7 30.9L18.3 27.2L21.3 22.1Z" fill="url(#iconPanelUltra)"/>
    <path d="M42.7 22.1L45.7 27.2L41.3 30.9L36.7 27.2L37.2 21.2L42.7 22.1Z" fill="url(#iconPanelUltra)"/>
    <path d="M21.8 35.7L22.7 30.9L27.3 27.2L29 32.7L25.7 36.9L21.8 35.7Z" fill="url(#iconPanelUltra)"/>
    <path d="M38.3 36.9L35 32.7L36.7 27.2L41.3 30.9L42.2 35.7L38.3 36.9Z" fill="url(#iconPanelUltra)"/>
  </g>

  <rect x="4.5" y="4.5" width="55" height="55" rx="15.5" stroke="#173F19"/>
</svg>