<svg width="64" height="64" viewBox="0 0 64 64" fill="none" xmlns="http://www.w3.org/2000/svg">
  <defs>
    <linearGradient id="rpsIconBgPremium" x1="32" y1="4" x2="32" y2="60" gradientUnits="userSpaceOnUse">
      <stop offset="0" stop-color="#FF175F"/>
      <stop offset="0.5" stop-color="#FF4C49"/>
      <stop offset="1" stop-color="#FFB33D"/>
    </linearGradient>

    <linearGradient id="rpsGoldPremium" x1="26" y1="10" x2="38" y2="23" gradientUnits="userSpaceOnUse">
      <stop offset="0" stop-color="#FFF3A0"/>
      <stop offset="0.42" stop-color="#FFD45B"/>
      <stop offset="1" stop-color="#FF9C18"/>
    </linearGradient>

    <radialGradient id="rpsTopGlowPremium" cx="0" cy="0" r="1" gradientUnits="userSpaceOnUse"
      gradientTransform="translate(32 18) rotate(90) scale(18 20)">
      <stop offset="0" stop-color="#FFC0BE" stop-opacity="0.28"/>
      <stop offset="1" stop-color="#FFC0BE" stop-opacity="0"/>
    </radialGradient>

    <linearGradient id="lineGold1" x1="18" y1="0" x2="46" y2="0" gradientUnits="userSpaceOnUse">
      <stop offset="0" stop-color="#FFD86A" stop-opacity="0"/>
      <stop offset="0.5" stop-color="#FFD86A" stop-opacity="0.72"/>
      <stop offset="1" stop-color="#FFD86A" stop-opacity="0"/>
    </linearGradient>

    <linearGradient id="lineGold2" x1="20" y1="0" x2="44" y2="0" gradientUnits="userSpaceOnUse">
      <stop offset="0" stop-color="#FFE59A" stop-opacity="0"/>
      <stop offset="0.5" stop-color="#FFE59A" stop-opacity="0.45"/>
      <stop offset="1" stop-color="#FFE59A" stop-opacity="0"/>
    </linearGradient>

    <filter id="iconShadowPremium" x="0" y="0" width="64" height="64" filterUnits="userSpaceOnUse" color-interpolation-filters="sRGB">
      <feDropShadow dx="0" dy="5" stdDeviation="5" flood-color="#5E1825" flood-opacity="0.24"/>
    </filter>
  </defs>

  <g filter="url(#iconShadowPremium)">
    <rect x="4" y="4" width="56" height="56" rx="16" fill="url(#rpsIconBgPremium)"/>
  </g>

  <ellipse cx="32" cy="18" rx="17" ry="12" fill="url(#rpsTopGlowPremium)"/>

  <g>
    <path d="M28.7 21L25.3 14.2L29.3 15.9L32 9.8L34.7 15.9L38.7 14.2L35.3 21H28.7Z"
          fill="url(#rpsGoldPremium)"/>
    <rect x="27.6" y="21" width="8.8" height="4" rx="2" fill="url(#rpsGoldPremium)"/>
    <circle cx="32" cy="9.6" r="1.5" fill="#FFF1A6"/>
  </g>

  <rect x="18" y="30" width="28" height="2.4" rx="1.2" fill="url(#lineGold1)"/>
  <rect x="20" y="36" width="24" height="2" rx="1" fill="url(#lineGold2)"/>
  <rect x="22" y="42" width="20" height="1.8" rx="0.9" fill="url(#lineGold2)"/>

  <rect x="4.5" y="4.5" width="55" height="55" rx="15.5" stroke="#7B2941"/>
</svg>