<svg width="512" height="640" viewBox="0 0 512 640" fill="none" xmlns="http://www.w3.org/2000/svg">
  <defs>
    <clipPath id="clipRps">
      <rect x="12" y="12" width="488" height="616" rx="36"/>
    </clipPath>

    <linearGradient id="rpsBg" x1="256" y1="12" x2="256" y2="628" gradientUnits="userSpaceOnUse">
      <stop offset="0" stop-color="#FF0F56"/>
      <stop offset="0.55" stop-color="#FF3A4F"/>
      <stop offset="1" stop-color="#FFA630"/>
    </linearGradient>

    <radialGradient id="topGlow" cx="0" cy="0" r="1" gradientUnits="userSpaceOnUse"
      gradientTransform="translate(256 126) rotate(90) scale(146 180)">
      <stop offset="0" stop-color="#FF8B90" stop-opacity="0.38"/>
      <stop offset="1" stop-color="#FF8B90" stop-opacity="0"/>
    </radialGradient>

    <filter id="shadowCard" x="0" y="0" width="512" height="640" filterUnits="userSpaceOnUse" color-interpolation-filters="sRGB">
      <feDropShadow dx="0" dy="10" stdDeviation="16" flood-color="#2B0614" flood-opacity="0.35"/>
    </filter>

    <filter id="shadowSoft" x="0" y="0" width="512" height="640" filterUnits="userSpaceOnUse" color-interpolation-filters="sRGB">
      <feDropShadow dx="0" dy="8" stdDeviation="10" flood-color="#571520" flood-opacity="0.22"/>
    </filter>

    <linearGradient id="goldCrown" x1="224" y1="44" x2="288" y2="118" gradientUnits="userSpaceOnUse">
      <stop offset="0" stop-color="#FFE95E"/>
      <stop offset="0.5" stop-color="#FFC52B"/>
      <stop offset="1" stop-color="#FF9600"/>
    </linearGradient>

    <linearGradient id="whiteHand" x1="148" y1="190" x2="215" y2="304" gradientUnits="userSpaceOnUse">
      <stop offset="0" stop-color="#FFFFFF"/>
      <stop offset="1" stop-color="#D9DDE7"/>
    </linearGradient>

    <linearGradient id="whiteHand2" x1="292" y1="190" x2="360" y2="304" gradientUnits="userSpaceOnUse">
      <stop offset="0" stop-color="#FFFFFF"/>
      <stop offset="1" stop-color="#D9DDE7"/>
    </linearGradient>

    <linearGradient id="darkStroke" x1="0" y1="0" x2="1" y2="1">
      <stop offset="0" stop-color="#B9BFCF"/>
      <stop offset="1" stop-color="#9BA3B8"/>
    </linearGradient>

    <filter id="textShadow" x="40" y="350" width="432" height="190" filterUnits="userSpaceOnUse" color-interpolation-filters="sRGB">
      <feDropShadow dx="0" dy="5" stdDeviation="2.5" flood-color="#7A1D23" flood-opacity="0.35"/>
    </filter>
  </defs>

  <g filter="url(#shadowCard)">
    <rect x="12" y="12" width="488" height="616" rx="36" fill="url(#rpsBg)"/>
  </g>

  <g clip-path="url(#clipRps)">
    <ellipse cx="256" cy="126" rx="174" ry="124" fill="url(#topGlow)"/>

    <!-- crown -->
    <g filter="url(#shadowSoft)">
      <path d="M232 109L210 69L234 79L256 49L278 79L302 69L280 109H232Z" fill="url(#goldCrown)"/>
      <rect x="226" y="109" width="60" height="18" rx="9" fill="url(#goldCrown)"/>
      <circle cx="256" cy="47" r="7" fill="#FFD83B"/>
    </g>

    <!-- left hand -->
    <g filter="url(#shadowSoft)">
      <path d="M160 214C160 199 171 188 185 188C199 188 210 199 210 214V245C210 258 200 268 187 268H183C170 268 160 258 160 245V214Z"
            fill="url(#whiteHand)"/>
      <path d="M134 245C134 232 144 223 157 223H169V283H155C143 283 134 274 134 262V245Z"
            fill="url(#whiteHand)"/>
      <path d="M164 268H200C216 268 229 281 229 297V303H164V268Z"
            fill="url(#whiteHand)"/>
      <path d="M170 178C170 164 180 154 193 154C206 154 216 164 216 178V214H170V178Z"
            fill="url(#whiteHand)"/>
      <path d="M193 168C193 153 204 142 218 142C232 142 243 153 243 168V217H193V168Z"
            fill="url(#whiteHand)"/>
      <path d="M217 176C217 161 228 150 242 150C256 150 267 161 267 176V220H217V176Z"
            fill="url(#whiteHand)"/>
      <path d="M241 189C241 176 251 166 264 166C276 166 286 176 286 189V223H241V189Z"
            fill="url(#whiteHand)"/>
    </g>

    <!-- right hand -->
    <g filter="url(#shadowSoft)">
      <path d="M352 214C352 199 341 188 327 188C313 188 302 199 302 214V245C302 258 312 268 325 268H329C342 268 352 258 352 245V214Z"
            fill="url(#whiteHand2)"/>
      <path d="M378 245C378 232 368 223 355 223H343V283H357C369 283 378 274 378 262V245Z"
            fill="url(#whiteHand2)"/>
      <path d="M322 268H348C364 268 377 281 377 297V303H322V268Z"
            fill="url(#whiteHand2)"/>
      <path d="M296 178C296 164 306 154 319 154C332 154 342 164 342 178V214H296V178Z"
            fill="url(#whiteHand2)"/>
      <path d="M269 168C269 153 280 142 294 142C308 142 319 153 319 168V217H269V168Z"
            fill="url(#whiteHand2)"/>
      <path d="M245 176C245 161 256 150 270 150C284 150 295 161 295 176V220H245V176Z"
            fill="url(#whiteHand2)"/>
      <path d="M226 189C226 176 236 166 249 166C261 166 271 176 271 189V223H226V189Z"
            fill="url(#whiteHand2)"/>
    </g>

    <!-- hand outlines -->
    <g opacity="0.55" stroke="url(#darkStroke)" stroke-width="2">
      <path d="M170 214V178"/>
      <path d="M193 214V168"/>
      <path d="M217 220V176"/>
      <path d="M241 223V189"/>

      <path d="M342 214V178"/>
      <path d="M319 217V168"/>
      <path d="M295 220V176"/>
      <path d="M271 223V189"/>
    </g>

    <!-- text -->
    <g filter="url(#textShadow)">
      <text x="256" y="445"
            text-anchor="middle"
            fill="#FFFFFF"
            font-family="Arial, Helvetica, sans-serif"
            font-size="54"
            font-weight="900">КАМЕНЬ</text>

      <text x="256" y="502"
            text-anchor="middle"
            fill="#FFFFFF"
            font-family="Arial, Helvetica, sans-serif"
            font-size="54"
            font-weight="900">НОЖНИЦЫ</text>

      <text x="256" y="559"
            text-anchor="middle"
            fill="#FFFFFF"
            font-family="Arial, Helvetica, sans-serif"
            font-size="54"
            font-weight="900">БУМАГА</text>
    </g>

    <text x="256" y="596"
          text-anchor="middle"
          fill="#F4EEF9"
          fill-opacity="0.95"
          font-family="Arial, Helvetica, sans-serif"
          font-size="18"
          font-weight="700"
          letter-spacing="2.8">TRINITI MODE</text>
  </g>

  <rect x="16" y="16" width="480" height="608" rx="32" stroke="#7C2740" stroke-width="3"/>
</svg>