<svg width="512" height="640" viewBox="0 0 512 640" fill="none" xmlns="http://www.w3.org/2000/svg">
  <defs>
    <clipPath id="towerCardClip">
      <rect x="12" y="12" width="488" height="616" rx="36"/>
    </clipPath>

    <linearGradient id="towerBg" x1="256" y1="12" x2="256" y2="628" gradientUnits="userSpaceOnUse">
      <stop offset="0" stop-color="#0A1118"/>
      <stop offset="0.45" stop-color="#101720"/>
      <stop offset="0.78" stop-color="#1C1623"/>
      <stop offset="1" stop-color="#31172E"/>
    </linearGradient>

    <radialGradient id="towerMoonGlow" cx="0" cy="0" r="1" gradientUnits="userSpaceOnUse"
      gradientTransform="translate(388 116) rotate(90) scale(82 82)">
      <stop offset="0" stop-color="#DDE9FF" stop-opacity="0.24"/>
      <stop offset="1" stop-color="#DDE9FF" stop-opacity="0"/>
    </radialGradient>

    <radialGradient id="dragonGlow" cx="0" cy="0" r="1" gradientUnits="userSpaceOnUse"
      gradientTransform="translate(248 226) rotate(90) scale(170 170)">
      <stop offset="0" stop-color="#B8C7DA" stop-opacity="0.14"/>
      <stop offset="1" stop-color="#B8C7DA" stop-opacity="0"/>
    </radialGradient>

    <linearGradient id="wallTop" x1="256" y1="322" x2="256" y2="364" gradientUnits="userSpaceOnUse">
      <stop offset="0" stop-color="#8B99AA"/>
      <stop offset="1" stop-color="#697583"/>
    </linearGradient>

    <linearGradient id="wallFront" x1="256" y1="352" x2="256" y2="434" gradientUnits="userSpaceOnUse">
      <stop offset="0" stop-color="#677280"/>
      <stop offset="1" stop-color="#4A535E"/>
    </linearGradient>

    <linearGradient id="titleGrad" x1="256" y1="468" x2="256" y2="620" gradientUnits="userSpaceOnUse">
      <stop offset="0" stop-color="#FFFFFF"/>
      <stop offset="1" stop-color="#F2E8F2"/>
    </linearGradient>

    <filter id="cardShadow" x="0" y="0" width="512" height="640" filterUnits="userSpaceOnUse" color-interpolation-filters="sRGB">
      <feDropShadow dx="0" dy="18" stdDeviation="18" flood-color="#02060B" flood-opacity="0.45"/>
    </filter>

    <filter id="dragonShadow" x="40" y="40" width="432" height="420" filterUnits="userSpaceOnUse" color-interpolation-filters="sRGB">
      <feDropShadow dx="0" dy="14" stdDeviation="14" flood-color="#000000" flood-opacity="0.42"/>
    </filter>

    <filter id="textShadow" x="0" y="0" width="512" height="640" filterUnits="userSpaceOnUse" color-interpolation-filters="sRGB">
      <feDropShadow dx="0" dy="6" stdDeviation="4" flood-color="#120914" flood-opacity="0.34"/>
    </filter>
  </defs>

  <g filter="url(#cardShadow)">
    <rect x="12" y="12" width="488" height="616" rx="36" fill="url(#towerBg)"/>
  </g>

  <g clip-path="url(#towerCardClip)">
    <ellipse cx="388" cy="116" rx="68" ry="68" fill="url(#towerMoonGlow)"/>
    <ellipse cx="248" cy="226" rx="176" ry="150" fill="url(#dragonGlow)"/>

    <g fill="#EAF3FF" fill-opacity="0.78">
      <circle cx="82" cy="94" r="1.3"/>
      <circle cx="112" cy="120" r="1.1"/>
      <circle cx="148" cy="88" r="1.15"/>
      <circle cx="328" cy="80" r="1.15"/>
      <circle cx="430" cy="150" r="1.35"/>
    </g>

    <path d="M-20 262L74 188L158 262H-20Z" fill="#0D1822"/>
    <path d="M112 258L216 180L308 258H112Z" fill="#0A141C"/>
    <path d="M274 264L392 182L504 264H274Z" fill="#0B1620"/>

    <!-- DRAGON -->
    <g filter="url(#dragonShadow)">
      <path d="M271 86
               C247 92 228 106 215 128
               C204 145 199 164 200 184
               C201 202 207 219 218 234
               C227 246 239 257 254 265
               C238 271 223 281 210 296
               C191 319 181 344 180 371
               C194 355 210 345 229 339
               C223 360 224 379 232 396
               C244 421 265 443 296 461
               C279 440 271 417 272 393
               C273 371 283 351 300 335
               C308 327 319 320 333 313
               C353 303 369 290 380 274
               C390 260 395 243 394 224
               C394 206 388 190 376 177
               C365 165 351 157 336 152
               C351 148 364 138 374 125
               C388 109 396 93 398 75
               C381 84 364 89 345 91
               C355 79 361 64 363 46
               C347 59 330 67 312 70
               C320 56 324 40 326 24
               C313 46 299 67 271 86Z"
            fill="#050607"/>

      <path d="M320 154
               C355 141 391 144 428 162
               C404 171 383 185 366 203
               C349 221 338 244 333 271
               C320 251 315 227 316 200
               C316 184 317 169 320 154Z"
            fill="#050607"/>

      <path d="M214 129
               C206 123 202 114 202 104
               C202 90 209 78 223 67
               C235 57 249 50 266 47
               C255 57 249 68 247 80
               C259 79 270 81 281 87
               C269 89 259 94 251 102
               C261 103 269 108 276 115
               C264 115 253 119 242 126
               C233 132 223 133 214 129Z"
            fill="#14181D"/>

      <path d="M205 133
               C190 134 176 141 165 153
               C155 164 144 170 131 173
               C143 178 155 179 168 176
               C160 187 153 199 148 214
               C168 208 186 198 201 183
               C211 173 216 160 216 144
               L205 133Z"
            fill="#050607"/>

      <path d="M230 69L242 30L240 73Z" fill="#050607"/>
      <path d="M252 55L280 10L265 61Z" fill="#050607"/>
      <path d="M274 55L316 28L286 68Z" fill="#050607"/>

      <path d="M147 176C121 194 101 218 87 247C103 239 121 225 139 207C145 201 147 189 147 176Z"
            fill="#050607"/>

      <!-- eye -->
      <path d="M225 104L251 97L240 116L219 118Z" fill="#EFF5FA"/>

      <!-- inner cuts to resemble reference -->
      <path d="M279 118C269 131 261 147 257 164C253 181 255 198 264 213C246 206 235 192 232 172C229 151 237 132 255 115C262 109 270 104 279 100C282 105 282 111 279 118Z"
            fill="#12161B"/>

      <path d="M294 221C278 232 267 246 262 264C257 282 260 299 271 316C252 308 241 295 238 277C235 258 242 241 258 226C268 217 280 211 294 208V221Z"
            fill="#12161B"/>
    </g>

    <!-- wall -->
    <rect x="58" y="322" width="396" height="48" rx="8" fill="url(#wallTop)"/>
    <rect x="42" y="352" width="428" height="82" rx="10" fill="url(#wallFront)"/>

    <g stroke="#4A5563" stroke-width="3" stroke-opacity="0.58">
      <path d="M94 322V434"/>
      <path d="M150 322V434"/>
      <path d="M208 322V434"/>
      <path d="M270 322V434"/>
      <path d="M334 322V434"/>
      <path d="M396 322V434"/>
      <path d="M70 384H442"/>
    </g>

    <g filter="url(#textShadow)">
      <text x="256" y="506"
            text-anchor="middle"
            fill="url(#titleGrad)"
            font-family="Arial, Helvetica, sans-serif"
            font-size="58"
            font-weight="900"
            letter-spacing="0.8">DRAGON</text>

      <text x="256" y="568"
            text-anchor="middle"
            fill="url(#titleGrad)"
            font-family="Arial, Helvetica, sans-serif"
            font-size="58"
            font-weight="900"
            letter-spacing="0.8">TOWER</text>
    </g>

    <text x="256" y="604"
          text-anchor="middle"
          fill="#F8EEF6"
          fill-opacity="0.96"
          font-family="Arial, Helvetica, sans-serif"
          font-size="18"
          font-weight="700"
          letter-spacing="2.8">TRINITI MODE</text>
  </g>

  <rect x="16" y="16" width="480" height="608" rx="32" stroke="#1E2731" stroke-width="3"/>
</svg>