<svg width="64" height="64" viewBox="0 0 64 64" fill="none" xmlns="http://www.w3.org/2000/svg">
  <defs>
    <linearGradient id="towerMiniPremiumBgClean" x1="32" y1="4" x2="32" y2="60" gradientUnits="userSpaceOnUse">
      <stop offset="0" stop-color="#091119"/>
      <stop offset="0.58" stop-color="#101822"/>
      <stop offset="1" stop-color="#2C162D"/>
    </linearGradient>

    <linearGradient id="towerMiniStoneFrontClean" x1="32" y1="17" x2="32" y2="46" gradientUnits="userSpaceOnUse">
      <stop offset="0" stop-color="#8C98A7"/>
      <stop offset="1" stop-color="#57616F"/>
    </linearGradient>

    <linearGradient id="towerMiniWindowClean" x1="32" y1="23" x2="32" y2="40" gradientUnits="userSpaceOnUse">
      <stop offset="0" stop-color="#FFD97A"/>
      <stop offset="1" stop-color="#FF9A52"/>
    </linearGradient>

    <linearGradient id="towerMiniGoldClean" x1="32" y1="10" x2="32" y2="18" gradientUnits="userSpaceOnUse">
      <stop offset="0" stop-color="#FFE7A4"/>
      <stop offset="1" stop-color="#FFAE59"/>
    </linearGradient>

    <filter id="towerMiniPremiumShadowClean" x="0" y="0" width="64" height="64" filterUnits="userSpaceOnUse" color-interpolation-filters="sRGB">
      <feDropShadow dx="0" dy="5" stdDeviation="5" flood-color="#04080D" flood-opacity="0.36"/>
    </filter>
  </defs>

  <g filter="url(#towerMiniPremiumShadowClean)">
    <rect x="4" y="4" width="56" height="56" rx="16" fill="url(#towerMiniPremiumBgClean)"/>
  </g>

  <!-- roof -->
  <path d="M32 13.5L40 20H24L32 13.5Z" fill="#262D37"/>
  <path d="M32 15.8L37.5 20H26.5L32 15.8Z" fill="#414A58"/>

  <!-- crown -->
  <rect x="24.5" y="19.2" width="15" height="3.6" rx="1.5" fill="#8A95A5"/>
  <path d="M24.5 19.2H27V16.8L28.3 19.2H30.8V16.2L32 19.2H33.2V16.2L34.6 19.2H37.1L38.5 16.8V19.2H39.5V22.8H24.5V19.2Z" fill="#98A4B3"/>

  <!-- gold top -->
  <path d="M32 10.5L33.8 15.8H30.2L32 10.5Z" fill="url(#towerMiniGoldClean)"/>
  <circle cx="32" cy="9.7" r="1.5" fill="#FFE6A1"/>

  <!-- side towers -->
  <path d="M22 25L24 22.5H26V46H20V29L22 25Z" fill="#47515E"/>
  <path d="M40 22.5H42L44 25V46H38V22.5H40Z" fill="#4E5866"/>

  <!-- main tower -->
  <rect x="26" y="22.5" width="12" height="23.5" rx="2.5" fill="url(#towerMiniStoneFrontClean)"/>

  <!-- bands -->
  <rect x="26" y="27.8" width="12" height="1.6" rx="0.8" fill="#5C6674"/>
  <rect x="26" y="33.4" width="12" height="1.6" rx="0.8" fill="#5C6674"/>
  <rect x="26" y="39" width="12" height="1.6" rx="0.8" fill="#5C6674"/>

  <!-- windows -->
  <rect x="29" y="24.5" width="6" height="5.8" rx="1.6" fill="url(#towerMiniWindowClean)"/>
  <rect x="29" y="30.1" width="6" height="5.8" rx="1.6" fill="url(#towerMiniWindowClean)"/>
  <rect x="29" y="35.7" width="6" height="5.8" rx="1.6" fill="url(#towerMiniWindowClean)"/>

  <!-- gate -->
  <path d="M28.6 46C28.6 42.1 30.1 40.3 32 40.3C33.9 40.3 35.4 42.1 35.4 46H28.6Z" fill="#12171E"/>

  <!-- wall -->
  <rect x="11" y="47" width="42" height="3.4" rx="1.5" fill="#7F8B99"/>
  <rect x="9" y="50" width="46" height="5" rx="2" fill="#535C69"/>

  <rect x="4.5" y="4.5" width="55" height="55" rx="15.5" stroke="#1E2731"/>
</svg>