<svg width="64" height="64" viewBox="0 0 64 64" fill="none" xmlns="http://www.w3.org/2000/svg">
  <defs>
    <linearGradient id="towerIconBgNew" x1="32" y1="4" x2="32" y2="60" gradientUnits="userSpaceOnUse">
      <stop offset="0" stop-color="#09111A"/>
      <stop offset="0.58" stop-color="#101A25"/>
      <stop offset="1" stop-color="#2B1730"/>
    </linearGradient>

    <linearGradient id="towerWallIcon" x1="32" y1="40" x2="32" y2="55" gradientUnits="userSpaceOnUse">
      <stop offset="0" stop-color="#8190A0"/>
      <stop offset="1" stop-color="#58626E"/>
    </linearGradient>

    <filter id="towerIconDrop" x="0" y="0" width="64" height="64" filterUnits="userSpaceOnUse" color-interpolation-filters="sRGB">
      <feDropShadow dx="0" dy="5" stdDeviation="5" flood-color="#04080D" flood-opacity="0.36"/>
    </filter>
  </defs>

  <g filter="url(#towerIconDrop)">
    <rect x="4" y="4" width="56" height="56" rx="16" fill="url(#towerIconBgNew)"/>
  </g>

  <circle cx="45" cy="17" r="8" fill="#D8E5FF" fill-opacity="0.09"/>

  <!-- dragon body -->
  <path d="M31 13
           C25 13 20 15 16.5 19
           C13.5 22.5 12 27 12.2 31.8
           C12.4 36.2 14.2 40 17.6 43.1
           C19.1 44.5 21 45.8 23.2 46.9
           C20.6 48.2 18.2 50 16.2 52.2
           C19.8 50.9 23.2 50.2 26.5 50.1
           C25.4 53.2 26.1 56 28.4 58.5
           C28.2 54.3 29.5 50.9 32.1 48.2
           C34.1 46 36.8 44.3 40 43.1
           C42.7 42.1 44.8 40.6 46.3 38.7
           C47.8 36.7 48.6 34.4 48.6 31.9
           C48.6 29 47.4 26.5 45.3 24.4
           C43.5 22.7 41.2 21.4 38.4 20.6
           C40.9 19.6 42.9 18 44.4 16
           C40.8 17.1 37.6 17.3 34.8 16.8
           C36.5 14.5 37.3 12 37.2 9.2
           C35.2 11.3 33.1 12.6 31 13Z"
        fill="#050607"/>

  <!-- wing -->
  <path d="M39 23C43.7 22.1 48 22.9 52 25.4C49.1 26.3 46.6 27.9 44.6 30.1C42.8 32.2 41.5 34.9 40.8 38.1C39.1 35.1 38.4 31.5 38.6 27.1C38.6 25.5 38.8 24.2 39 23Z"
        fill="#050607"/>

  <!-- jaw -->
  <path d="M15.8 28.8C14.2 29 12.6 29.9 11.1 31.4C10 32.6 8.7 33.5 7 34C8.7 34.6 10.6 34.6 12.5 34C11.5 35.3 10.7 36.9 10.1 38.8C12.8 37.9 15.2 36.6 17.2 34.7C18.8 33.1 19.5 31.1 19.4 28.9L15.8 28.8Z"
        fill="#050607"/>

  <!-- horns -->
  <path d="M24.8 18.4L27 11.2L26.6 18.9Z" fill="#050607"/>
  <path d="M29.8 15.8L34 9L31.8 17.1Z" fill="#050607"/>
  <path d="M34.6 16.2L40 12L35.9 18.1Z" fill="#050607"/>

  <!-- eye -->
  <path d="M20.8 25.5L24.6 24.3L23.1 27.1L20 27.3Z" fill="#EDF4FA"/>

  <!-- wall -->
  <rect x="10" y="40" width="44" height="6.5" rx="2" fill="#8794A4"/>
  <rect x="8" y="45" width="48" height="10" rx="3" fill="url(#towerWallIcon)"/>

  <path d="M16 40V55" stroke="#495360" stroke-width="1.6"/>
  <path d="M24 40V55" stroke="#495360" stroke-width="1.6"/>
  <path d="M40 40V55" stroke="#495360" stroke-width="1.6"/>
  <path d="M48 40V55" stroke="#495360" stroke-width="1.6"/>

  <rect x="4.5" y="4.5" width="55" height="55" rx="15.5" stroke="#1E2731"/>
</svg>