<svg width="64" height="64" viewBox="0 0 64 64" fill="none" xmlns="http://www.w3.org/2000/svg">
  <defs>
    <linearGradient id="towerIconBg2" x1="32" y1="4" x2="32" y2="60" gradientUnits="userSpaceOnUse">
      <stop offset="0" stop-color="#08131E"/>
      <stop offset="0.55" stop-color="#0B1B2B"/>
      <stop offset="1" stop-color="#26172B"/>
    </linearGradient>

    <linearGradient id="towerIconDragon2" x1="32" y1="14" x2="32" y2="40" gradientUnits="userSpaceOnUse">
      <stop offset="0" stop-color="#A3B2C3"/>
      <stop offset="1" stop-color="#4B5667"/>
    </linearGradient>

    <linearGradient id="towerIconWing2" x1="0" y1="0" x2="1" y2="1">
      <stop offset="0" stop-color="#718094"/>
      <stop offset="1" stop-color="#2A3340"/>
    </linearGradient>

    <linearGradient id="towerIconWall2" x1="32" y1="36" x2="32" y2="55" gradientUnits="userSpaceOnUse">
      <stop offset="0" stop-color="#8090A0"/>
      <stop offset="1" stop-color="#525C69"/>
    </linearGradient>

    <filter id="towerIconShadow2" x="0" y="0" width="64" height="64" filterUnits="userSpaceOnUse" color-interpolation-filters="sRGB">
      <feDropShadow dx="0" dy="5" stdDeviation="5" flood-color="#05080D" flood-opacity="0.34"/>
    </filter>
  </defs>

  <g filter="url(#towerIconShadow2)">
    <rect x="4" y="4" width="56" height="56" rx="16" fill="url(#towerIconBg2)"/>
  </g>

  <!-- moon haze -->
  <circle cx="45" cy="17" r="9" fill="#D2E5FF" fill-opacity="0.07"/>

  <!-- wings -->
  <path d="M19 28C15.2 25.4 13.6 21 14.8 16.8C18.9 18.4 23.4 22 26.2 29C23.7 29.3 21 29.1 19 28Z" fill="url(#towerIconWing2)"/>
  <path d="M45 28C48.8 25.4 50.4 21 49.2 16.8C45.1 18.4 40.6 22 37.8 29C40.3 29.3 43 29.1 45 28Z" fill="url(#towerIconWing2)"/>

  <!-- horns -->
  <path d="M28.4 17L25.4 12L29 14.5Z" fill="#C2CDD7"/>
  <path d="M35.6 17L38.6 12L35 14.5Z" fill="#C2CDD7"/>

  <!-- head -->
  <path d="M32 16
           C25.5 16 21 20.5 21 26.8
           C21 31.1 23.8 35 26.4 38.3
           C28 40.4 29.1 42 32 45.8
           C34.9 42 36 40.4 37.6 38.3
           C40.2 35 43 31.1 43 26.8
           C43 20.5 38.5 16 32 16Z"
        fill="url(#towerIconDragon2)"/>

  <!-- snout -->
  <path d="M27.5 29L32 32L36.5 29L35 36L32 40.2L29 36L27.5 29Z" fill="#5A6676"/>

  <!-- eyes -->
  <path d="M27 27.2L29.6 26.1L29 28.8L26.5 29.2Z" fill="#EAF1F6"/>
  <path d="M37 27.2L34.4 26.1L35 28.8L37.5 29.2Z" fill="#EAF1F6"/>
  <circle cx="27.9" cy="28.1" r="0.95" fill="#0A0F15"/>
  <circle cx="36.1" cy="28.1" r="0.95" fill="#0A0F15"/>

  <!-- wall -->
  <rect x="10" y="37" width="44" height="8" rx="2" fill="url(#towerIconWall2)"/>
  <rect x="8" y="43" width="48" height="12" rx="3" fill="#596372"/>

  <path d="M17 37V55" stroke="#46515F" stroke-width="1.7"/>
  <path d="M25 37V55" stroke="#46515F" stroke-width="1.7"/>
  <path d="M39 37V55" stroke="#46515F" stroke-width="1.7"/>
  <path d="M47 37V55" stroke="#46515F" stroke-width="1.7"/>

  <rect x="4.5" y="4.5" width="55" height="55" rx="15.5" stroke="#1F2833"/>
</svg>