<svg width="512" height="640" viewBox="0 0 512 640" fill="none" xmlns="http://www.w3.org/2000/svg">
  <defs>
    <clipPath id="towerCardClipPremiumClean3">
      <rect x="12" y="12" width="488" height="616" rx="36"/>
    </clipPath>

    <linearGradient id="towerPremiumBgClean3" x1="256" y1="12" x2="256" y2="628" gradientUnits="userSpaceOnUse">
      <stop offset="0" stop-color="#081019"/>
      <stop offset="0.34" stop-color="#0D1520"/>
      <stop offset="0.7" stop-color="#171420"/>
      <stop offset="1" stop-color="#2A1630"/>
    </linearGradient>

    <radialGradient id="towerPremiumAuraClean3" cx="0" cy="0" r="1" gradientUnits="userSpaceOnUse"
      gradientTransform="translate(256 218) rotate(90) scale(160 148)">
      <stop offset="0" stop-color="#BB8FFF" stop-opacity="0.16"/>
      <stop offset="0.46" stop-color="#7B9EFF" stop-opacity="0.10"/>
      <stop offset="1" stop-color="#7B9EFF" stop-opacity="0"/>
    </radialGradient>

    <linearGradient id="stoneFrontPremiumClean3" x1="256" y1="166" x2="256" y2="374" gradientUnits="userSpaceOnUse">
      <stop offset="0" stop-color="#909CAC"/>
      <stop offset="0.3" stop-color="#768293"/>
      <stop offset="0.72" stop-color="#576170"/>
      <stop offset="1" stop-color="#3F4653"/>
    </linearGradient>

    <linearGradient id="stoneLeftPremiumClean3" x1="184" y1="244" x2="226" y2="244" gradientUnits="userSpaceOnUse">
      <stop offset="0" stop-color="#303743"/>
      <stop offset="1" stop-color="#596373"/>
    </linearGradient>

    <linearGradient id="stoneRightPremiumClean3" x1="286" y1="244" x2="328" y2="244" gradientUnits="userSpaceOnUse">
      <stop offset="0" stop-color="#5A6474"/>
      <stop offset="1" stop-color="#313844"/>
    </linearGradient>

    <linearGradient id="roofPremiumClean3" x1="256" y1="132" x2="256" y2="204" gradientUnits="userSpaceOnUse">
      <stop offset="0" stop-color="#313846"/>
      <stop offset="1" stop-color="#161B23"/>
    </linearGradient>

    <linearGradient id="goldAccentPremiumClean3" x1="256" y1="128" x2="256" y2="194" gradientUnits="userSpaceOnUse">
      <stop offset="0" stop-color="#FFE6A2"/>
      <stop offset="0.52" stop-color="#FFC86A"/>
      <stop offset="1" stop-color="#FF9E53"/>
    </linearGradient>

    <linearGradient id="windowPremiumClean3" x1="256" y1="204" x2="256" y2="324" gradientUnits="userSpaceOnUse">
      <stop offset="0" stop-color="#FFD97A"/>
      <stop offset="0.58" stop-color="#FFB95D"/>
      <stop offset="1" stop-color="#FF8F52"/>
    </linearGradient>

    <linearGradient id="titlePremiumClean3" x1="256" y1="478" x2="256" y2="618" gradientUnits="userSpaceOnUse">
      <stop offset="0" stop-color="#FFFFFF"/>
      <stop offset="1" stop-color="#F2E7F4"/>
    </linearGradient>

    <filter id="towerPremiumCardShadowClean3" x="0" y="0" width="512" height="640" filterUnits="userSpaceOnUse" color-interpolation-filters="sRGB">
      <feDropShadow dx="0" dy="18" stdDeviation="18" flood-color="#02060B" flood-opacity="0.44"/>
    </filter>

    <filter id="towerPremiumBodyShadowClean3" x="140" y="110" width="232" height="300" filterUnits="userSpaceOnUse" color-interpolation-filters="sRGB">
      <feDropShadow dx="0" dy="16" stdDeviation="12" flood-color="#000000" flood-opacity="0.32"/>
    </filter>

    <filter id="towerPremiumWindowGlowClean3" x="198" y="190" width="116" height="174" filterUnits="userSpaceOnUse" color-interpolation-filters="sRGB">
      <feDropShadow dx="0" dy="0" stdDeviation="10" flood-color="#FFB261" flood-opacity="0.24"/>
    </filter>

    <filter id="towerPremiumTextShadowClean3" x="0" y="0" width="512" height="640" filterUnits="userSpaceOnUse" color-interpolation-filters="sRGB">
      <feDropShadow dx="0" dy="6" stdDeviation="4" flood-color="#140915" flood-opacity="0.34"/>
    </filter>
  </defs>

  <g filter="url(#towerPremiumCardShadowClean3)">
    <rect x="12" y="12" width="488" height="616" rx="36" fill="url(#towerPremiumBgClean3)"/>
  </g>

  <g clip-path="url(#towerCardClipPremiumClean3)">
    <ellipse cx="256" cy="218" rx="160" ry="148" fill="url(#towerPremiumAuraClean3)"/>

    <g fill="#EAF3FF" fill-opacity="0.72">
      <circle cx="82" cy="90" r="1.3"/>
      <circle cx="108" cy="120" r="1.1"/>
      <circle cx="148" cy="84" r="1.2"/>
      <circle cx="320" cy="80" r="1.15"/>
      <circle cx="426" cy="150" r="1.35"/>
    </g>

    <path d="M-20 294L74 220L158 294H-20Z" fill="#0C1822"/>
    <path d="M112 286L214 210L308 286H112Z" fill="#0A141C"/>
    <path d="M274 294L394 212L506 294H274Z" fill="#0C1620"/>

    <!-- замок -->
    <g filter="url(#towerPremiumBodyShadowClean3)">
      <path d="M190 218L206 197H226V386H184V232L190 218Z" fill="url(#stoneLeftPremiumClean3)"/>
      <path d="M322 218L328 232V386H286V197H306L322 218Z" fill="url(#stoneRightPremiumClean3)"/>

      <rect x="226" y="174" width="60" height="212" rx="10" fill="url(#stoneFrontPremiumClean3)"/>

      <path d="M256 132L304 174H208L256 132Z" fill="url(#roofPremiumClean3)"/>
      <path d="M256 143L289 174H223L256 143Z" fill="#414A58"/>

      <rect x="214" y="166" width="84" height="14" rx="5" fill="#8994A4"/>
      <path d="M214 166H226V155L232 166H245V153L256 166H267V153L279 166H290V155L298 166V180H214V166Z" fill="#98A4B3"/>

      <path d="M256 122L264 150H248L256 122Z" fill="url(#goldAccentPremiumClean3)"/>
      <circle cx="256" cy="118" r="5" fill="#FFD77C"/>
      <circle cx="256" cy="118" r="2.4" fill="#FFF2C8"/>

      <path d="M224 167L230 147L236 167H224Z" fill="#262D37"/>
      <path d="M276 167L282 147L288 167H276Z" fill="#262D37"/>

      <rect x="226" y="208" width="60" height="8" rx="4" fill="#5F6977"/>
      <rect x="226" y="256" width="60" height="8" rx="4" fill="#5F6977"/>
      <rect x="226" y="304" width="60" height="8" rx="4" fill="#5F6977"/>

      <g stroke="#4D5663" stroke-width="2.6" stroke-opacity="0.58">
        <path d="M226 234H286"/>
        <path d="M226 282H286"/>
        <path d="M226 330H286"/>
        <path d="M190 246H226"/>
        <path d="M190 294H226"/>
        <path d="M286 246H322"/>
        <path d="M286 294H322"/>
      </g>
    </g>

    <!-- окна -->
    <g filter="url(#towerPremiumWindowGlowClean3)">
      <rect x="238" y="192" width="36" height="36" rx="10" fill="url(#windowPremiumClean3)"/>
      <rect x="238" y="240" width="36" height="36" rx="10" fill="url(#windowPremiumClean3)"/>
      <rect x="238" y="288" width="36" height="36" rx="10" fill="url(#windowPremiumClean3)"/>
    </g>

    <!-- ворота -->
    <path d="M232 386C232 360 242 347 256 347C270 347 280 360 280 386H232Z" fill="#262C35"/>
    <path d="M241 386C241 367 247 357 256 357C265 357 271 367 271 386H241Z" fill="#11161D"/>

    <!-- 2 серые полосы -->
    <rect x="84" y="406" width="344" height="14" rx="7" fill="#6B7685"/>
    <rect x="68" y="420" width="376" height="20" rx="9" fill="#4B5460"/>

    <g stroke="#495360" stroke-width="2.8" stroke-opacity="0.58">
      <path d="M108 406V440"/>
      <path d="M158 406V440"/>
      <path d="M208 406V440"/>
      <path d="M256 406V440"/>
      <path d="M304 406V440"/>
      <path d="M354 406V440"/>
      <path d="M404 406V440"/>
    </g>

    <!-- текст -->
    <g filter="url(#towerPremiumTextShadowClean3)">
      <text x="256" y="512"
            text-anchor="middle"
            fill="url(#titlePremiumClean3)"
            font-family="Arial, Helvetica, sans-serif"
            font-size="52"
            font-weight="900"
            letter-spacing="0.8">DRAGON</text>

      <text x="256" y="568"
            text-anchor="middle"
            fill="url(#titlePremiumClean3)"
            font-family="Arial, Helvetica, sans-serif"
            font-size="52"
            font-weight="900"
            letter-spacing="0.8">TOWER</text>
    </g>

    <text x="256" y="596"
          text-anchor="middle"
          fill="#F8EEF6"
          fill-opacity="0.96"
          font-family="Arial, Helvetica, sans-serif"
          font-size="17"
          font-weight="700"
          letter-spacing="2.5">TRINITI MODE</text>
  </g>

  <rect x="16" y="16" width="480" height="608" rx="32" stroke="#1F2833" stroke-width="3"/>
</svg>