<svg width="512" height="640" viewBox="0 0 512 640" fill="none" xmlns="http://www.w3.org/2000/svg">
  <defs>
    <clipPath id="towerCardClipPremiumClean4">
      <rect x="12" y="12" width="488" height="616" rx="36"/>
    </clipPath>

    <linearGradient id="towerPremiumBgClean4" x1="256" y1="12" x2="256" y2="628" gradientUnits="userSpaceOnUse">
      <stop offset="0" stop-color="#081019"/>
      <stop offset="0.34" stop-color="#0D1520"/>
      <stop offset="0.7" stop-color="#171420"/>
      <stop offset="1" stop-color="#2A1630"/>
    </linearGradient>

    <radialGradient id="towerPremiumAuraClean4" cx="0" cy="0" r="1" gradientUnits="userSpaceOnUse"
      gradientTransform="translate(256 222) rotate(90) scale(160 148)">
      <stop offset="0" stop-color="#BB8FFF" stop-opacity="0.16"/>
      <stop offset="0.46" stop-color="#7B9EFF" stop-opacity="0.10"/>
      <stop offset="1" stop-color="#7B9EFF" stop-opacity="0"/>
    </radialGradient>

    <linearGradient id="stoneFrontPremiumClean4" x1="256" y1="186" x2="256" y2="406" gradientUnits="userSpaceOnUse">
      <stop offset="0" stop-color="#909CAC"/>
      <stop offset="0.3" stop-color="#768293"/>
      <stop offset="0.72" stop-color="#576170"/>
      <stop offset="1" stop-color="#3F4653"/>
    </linearGradient>

    <linearGradient id="stoneLeftPremiumClean4" x1="184" y1="264" x2="226" y2="264" gradientUnits="userSpaceOnUse">
      <stop offset="0" stop-color="#303743"/>
      <stop offset="1" stop-color="#596373"/>
    </linearGradient>

    <linearGradient id="stoneRightPremiumClean4" x1="286" y1="264" x2="328" y2="264" gradientUnits="userSpaceOnUse">
      <stop offset="0" stop-color="#5A6474"/>
      <stop offset="1" stop-color="#313844"/>
    </linearGradient>

    <linearGradient id="roofPremiumClean4" x1="256" y1="144" x2="256" y2="216" gradientUnits="userSpaceOnUse">
      <stop offset="0" stop-color="#313846"/>
      <stop offset="1" stop-color="#161B23"/>
    </linearGradient>

    <linearGradient id="goldAccentPremiumClean4" x1="256" y1="140" x2="256" y2="206" gradientUnits="userSpaceOnUse">
      <stop offset="0" stop-color="#FFE6A2"/>
      <stop offset="0.52" stop-color="#FFC86A"/>
      <stop offset="1" stop-color="#FF9E53"/>
    </linearGradient>

    <linearGradient id="windowPremiumClean4" x1="256" y1="222" x2="256" y2="342" gradientUnits="userSpaceOnUse">
      <stop offset="0" stop-color="#FFD97A"/>
      <stop offset="0.58" stop-color="#FFB95D"/>
      <stop offset="1" stop-color="#FF8F52"/>
    </linearGradient>

    <linearGradient id="titlePremiumClean4" x1="256" y1="478" x2="256" y2="618" gradientUnits="userSpaceOnUse">
      <stop offset="0" stop-color="#FFFFFF"/>
      <stop offset="1" stop-color="#F2E7F4"/>
    </linearGradient>

    <filter id="towerPremiumCardShadowClean4" x="0" y="0" width="512" height="640" filterUnits="userSpaceOnUse" color-interpolation-filters="sRGB">
      <feDropShadow dx="0" dy="18" stdDeviation="18" flood-color="#02060B" flood-opacity="0.44"/>
    </filter>

    <filter id="towerPremiumBodyShadowClean4" x="140" y="126" width="232" height="310" filterUnits="userSpaceOnUse" color-interpolation-filters="sRGB">
      <feDropShadow dx="0" dy="16" stdDeviation="12" flood-color="#000000" flood-opacity="0.32"/>
    </filter>

    <filter id="towerPremiumWindowGlowClean4" x="198" y="204" width="116" height="174" filterUnits="userSpaceOnUse" color-interpolation-filters="sRGB">
      <feDropShadow dx="0" dy="0" stdDeviation="10" flood-color="#FFB261" flood-opacity="0.24"/>
    </filter>

    <filter id="towerPremiumTextShadowClean4" x="0" y="0" width="512" height="640" filterUnits="userSpaceOnUse" color-interpolation-filters="sRGB">
      <feDropShadow dx="0" dy="6" stdDeviation="4" flood-color="#140915" flood-opacity="0.34"/>
    </filter>
  </defs>

  <g filter="url(#towerPremiumCardShadowClean4)">
    <rect x="12" y="12" width="488" height="616" rx="36" fill="url(#towerPremiumBgClean4)"/>
  </g>

  <g clip-path="url(#towerCardClipPremiumClean4)">
    <ellipse cx="256" cy="222" rx="160" ry="148" fill="url(#towerPremiumAuraClean4)"/>

    <g fill="#EAF3FF" fill-opacity="0.72">
      <circle cx="82" cy="90" r="1.3"/>
      <circle cx="108" cy="120" r="1.1"/>
      <circle cx="148" cy="84" r="1.2"/>
      <circle cx="320" cy="80" r="1.15"/>
      <circle cx="426" cy="150" r="1.35"/>
    </g>

    <path d="M-20 294L74 220L158 294H-20Z" fill="#0C1822"/>
    <path d="M112 286L214 210L308 286H112Z" fill="#0A141C"/>
    <path d="M274 294L394 212L506 294H274Z" fill="#0C1620"/>

    <!-- 2 серые полосы: сначала основание -->
    <rect x="84" y="406" width="344" height="14" rx="7" fill="#6B7685"/>
    <rect x="68" y="420" width="376" height="20" rx="9" fill="#4B5460"/>

    <g stroke="#495360" stroke-width="2.8" stroke-opacity="0.58">
      <path d="M108 406V440"/>
      <path d="M158 406V440"/>
      <path d="M208 406V440"/>
      <path d="M256 406V440"/>
      <path d="M304 406V440"/>
      <path d="M354 406V440"/>
      <path d="M404 406V440"/>
    </g>

    <!-- замок: опущен так, чтобы стоять на верхней полосе -->
    <g filter="url(#towerPremiumBodyShadowClean4)">
      <path d="M190 230L206 209H226V406H184V244L190 230Z" fill="url(#stoneLeftPremiumClean4)"/>
      <path d="M322 230L328 244V406H286V209H306L322 230Z" fill="url(#stoneRightPremiumClean4)"/>

      <rect x="226" y="186" width="60" height="220" rx="10" fill="url(#stoneFrontPremiumClean4)"/>

      <path d="M256 144L304 186H208L256 144Z" fill="url(#roofPremiumClean4)"/>
      <path d="M256 155L289 186H223L256 155Z" fill="#414A58"/>

      <rect x="214" y="178" width="84" height="14" rx="5" fill="#8994A4"/>
      <path d="M214 178H226V167L232 178H245V165L256 178H267V165L279 178H290V167L298 178V192H214V178Z" fill="#98A4B3"/>

      <path d="M256 134L264 162H248L256 134Z" fill="url(#goldAccentPremiumClean4)"/>
      <circle cx="256" cy="130" r="5" fill="#FFD77C"/>
      <circle cx="256" cy="130" r="2.4" fill="#FFF2C8"/>

      <path d="M224 179L230 159L236 179H224Z" fill="#262D37"/>
      <path d="M276 179L282 159L288 179H276Z" fill="#262D37"/>

      <rect x="226" y="220" width="60" height="8" rx="4" fill="#5F6977"/>
      <rect x="226" y="268" width="60" height="8" rx="4" fill="#5F6977"/>
      <rect x="226" y="316" width="60" height="8" rx="4" fill="#5F6977"/>

      <g stroke="#4D5663" stroke-width="2.6" stroke-opacity="0.58">
        <path d="M226 246H286"/>
        <path d="M226 294H286"/>
        <path d="M226 342H286"/>
        <path d="M190 258H226"/>
        <path d="M190 306H226"/>
        <path d="M286 258H322"/>
        <path d="M286 306H322"/>
      </g>
    </g>

    <!-- окна -->
    <g filter="url(#towerPremiumWindowGlowClean4)">
      <rect x="238" y="204" width="36" height="36" rx="10" fill="url(#windowPremiumClean4)"/>
      <rect x="238" y="252" width="36" height="36" rx="10" fill="url(#windowPremiumClean4)"/>
      <rect x="238" y="300" width="36" height="36" rx="10" fill="url(#windowPremiumClean4)"/>
    </g>

    <!-- ворота -->
    <path d="M232 406C232 380 242 367 256 367C270 367 280 380 280 406H232Z" fill="#262C35"/>
    <path d="M241 406C241 387 247 377 256 377C265 377 271 387 271 406H241Z" fill="#11161D"/>

    <!-- текст -->
    <g filter="url(#towerPremiumTextShadowClean4)">
      <text x="256" y="512"
            text-anchor="middle"
            fill="url(#titlePremiumClean4)"
            font-family="Arial, Helvetica, sans-serif"
            font-size="52"
            font-weight="900"
            letter-spacing="0.8">DRAGON</text>

      <text x="256" y="568"
            text-anchor="middle"
            fill="url(#titlePremiumClean4)"
            font-family="Arial, Helvetica, sans-serif"
            font-size="52"
            font-weight="900"
            letter-spacing="0.8">TOWER</text>
    </g>

    <text x="256" y="596"
          text-anchor="middle"
          fill="#F8EEF6"
          fill-opacity="0.96"
          font-family="Arial, Helvetica, sans-serif"
          font-size="17"
          font-weight="700"
          letter-spacing="2.5">TRINITI MODE</text>
  </g>

  <rect x="16" y="16" width="480" height="608" rx="32" stroke="#1F2833" stroke-width="3"/>
</svg>