<svg width="64" height="64" viewBox="0 0 64 64" fill="none" xmlns="http://www.w3.org/2000/svg">
  <defs>
    <linearGradient id="iconBg" x1="32" y1="4" x2="32" y2="60" gradientUnits="userSpaceOnUse">
      <stop offset="0" stop-color="#091119"/>
      <stop offset="0.58" stop-color="#101822"/>
      <stop offset="1" stop-color="#2C162D"/>
    </linearGradient>

    <linearGradient id="wallGrad" x1="32" y1="40" x2="32" y2="55" gradientUnits="userSpaceOnUse">
      <stop offset="0" stop-color="#8391A2"/>
      <stop offset="1" stop-color="#59636F"/>
    </linearGradient>

    <filter id="iconShadow" x="0" y="0" width="64" height="64" filterUnits="userSpaceOnUse" color-interpolation-filters="sRGB">
      <feDropShadow dx="0" dy="5" stdDeviation="5" flood-color="#04080D" flood-opacity="0.36"/>
    </filter>
  </defs>

  <g filter="url(#iconShadow)">
    <rect x="4" y="4" width="56" height="56" rx="16" fill="url(#iconBg)"/>
  </g>

  <circle cx="45" cy="16" r="8" fill="#DDE8FF" fill-opacity="0.08"/>

  <!-- dragon -->
  <path d="M34 13
           C29.8 13.6 26.1 15.5 23.3 18.7
           C21 21.4 19.9 24.8 19.9 28.4
           C19.9 31.5 20.9 34.1 22.9 36.2
           C24.4 37.8 26.4 39 28.7 39.8
           C26.2 41.2 24.1 43.1 22.6 45.5
           C25.2 44.4 27.4 43.8 29.4 43.8
           C29.2 46.7 30.1 49 32.1 50.9
           C31.7 47.3 32.5 44.4 34.4 42.2
           C36 40.4 38.4 38.9 41.4 37.8
           C44.2 36.8 46.3 35.3 47.7 33.5
           C49 31.8 49.6 29.7 49.4 27.1
           C49.1 24.6 48.2 22.5 46.5 20.9
           C45 19.4 42.9 18.2 40.2 17.5
           C42.3 16.6 44 15 45.2 12.8
           C42.7 13.7 40.4 13.9 38.3 13.6
           C39.2 11.8 39.6 9.9 39.6 7.8
           C37.9 9.7 36 11.4 34 13Z"
        fill="#050607"/>

  <path d="M39.8 18.9
           C43.6 17.9 47.4 18.4 51.2 20.4
           C48.6 21.1 46.4 22.4 44.7 24
           C43.1 25.5 42 27.5 41.3 30
           C40 27.8 39.4 25.4 39.4 22.8
           C39.4 21.4 39.5 20.1 39.8 18.9Z"
        fill="#050607"/>

  <path d="M20.8 21.4
           C19.1 21.8 17.6 22.8 16.2 24.2
           C15.1 25.3 13.9 26.1 12.5 26.6
           C14 27 15.5 27 17.1 26.5
           C16.1 27.7 15.3 29.1 14.8 30.8
           C17.3 30.1 19.5 29 21.3 27.4
           C22.6 26.1 23.3 24.5 23.2 22.4L20.8 21.4Z"
        fill="#050607"/>

  <path d="M27.6 17.8L29.8 11.4L29.2 18.4Z" fill="#050607"/>
  <path d="M31.8 15.1L35.9 8.8L33.8 16.1Z" fill="#050607"/>
  <path d="M35.8 15.2L40.7 11.8L37.3 16.9Z" fill="#050607"/>

  <path d="M26.9 22.4L30.7 21.5L29.2 24.1L26.1 24.3Z" fill="#EEF5FA"/>

  <!-- wall -->
  <rect x="10" y="40" width="44" height="6.5" rx="2" fill="#8794A3"/>
  <rect x="8" y="45" width="48" height="10" rx="3" fill="url(#wallGrad)"/>

  <path d="M16 40V55" stroke="#495360" stroke-width="1.6"/>
  <path d="M24 40V55" stroke="#495360" stroke-width="1.6"/>
  <path d="M40 40V55" stroke="#495360" stroke-width="1.6"/>
  <path d="M48 40V55" stroke="#495360" stroke-width="1.6"/>

  <rect x="4.5" y="4.5" width="55" height="55" rx="15.5" stroke="#1E2731"/>
</svg>