<svg width="64" height="64" viewBox="0 0 64 64" fill="none" xmlns="http://www.w3.org/2000/svg">
  <defs>
    <linearGradient id="towerMiniPremiumBgClean2" x1="32" y1="4" x2="32" y2="60" gradientUnits="userSpaceOnUse">
      <stop offset="0" stop-color="#091119"/>
      <stop offset="0.58" stop-color="#101822"/>
      <stop offset="1" stop-color="#2C162D"/>
    </linearGradient>

    <linearGradient id="towerMiniStoneFrontClean2" x1="32" y1="17" x2="32" y2="44" gradientUnits="userSpaceOnUse">
      <stop offset="0" stop-color="#8C98A7"/>
      <stop offset="1" stop-color="#57616F"/>
    </linearGradient>

    <linearGradient id="towerMiniWindowClean2" x1="32" y1="23" x2="32" y2="38" gradientUnits="userSpaceOnUse">
      <stop offset="0" stop-color="#FFD97A"/>
      <stop offset="1" stop-color="#FF9A52"/>
    </linearGradient>

    <linearGradient id="towerMiniGoldClean2" x1="32" y1="10" x2="32" y2="17" gradientUnits="userSpaceOnUse">
      <stop offset="0" stop-color="#FFE7A4"/>
      <stop offset="1" stop-color="#FFAE59"/>
    </linearGradient>

    <filter id="towerMiniPremiumShadowClean2" x="0" y="0" width="64" height="64" filterUnits="userSpaceOnUse" color-interpolation-filters="sRGB">
      <feDropShadow dx="0" dy="5" stdDeviation="5" flood-color="#04080D" flood-opacity="0.36"/>
    </filter>
  </defs>

  <g filter="url(#towerMiniPremiumShadowClean2)">
    <rect x="4" y="4" width="56" height="56" rx="16" fill="url(#towerMiniPremiumBgClean2)"/>
  </g>

  <!-- roof -->
  <path d="M32 14L39 20H25L32 14Z" fill="#262D37"/>
  <path d="M32 16L36.8 20H27.2L32 16Z" fill="#414A58"/>

  <!-- crown -->
  <rect x="25" y="19" width="14" height="3.2" rx="1.4" fill="#8A95A5"/>
  <path d="M25 19H27V17L28 19H30V16.6L32 19H34V16.6L36 19H38L39 17V19V22.2H25V19Z" fill="#98A4B3"/>

  <!-- top -->
  <path d="M32 11L33.5 15.8H30.5L32 11Z" fill="url(#towerMiniGoldClean2)"/>
  <circle cx="32" cy="10.4" r="1.3" fill="#FFE6A1"/>

  <!-- sides -->
  <path d="M23 24.5L24.6 22.8H26.6V44H21V28L23 24.5Z" fill="#47515E"/>
  <path d="M37.4 22.8H39.4L41 24.5V44H35.4V22.8H37.4Z" fill="#4E5866"/>

  <!-- center -->
  <rect x="26.6" y="22.8" width="10.8" height="21.2" rx="2.2" fill="url(#towerMiniStoneFrontClean2)"/>

  <!-- bands -->
  <rect x="26.6" y="27.4" width="10.8" height="1.5" rx="0.75" fill="#5C6674"/>
  <rect x="26.6" y="32.5" width="10.8" height="1.5" rx="0.75" fill="#5C6674"/>
  <rect x="26.6" y="37.6" width="10.8" height="1.5" rx="0.75" fill="#5C6674"/>

  <!-- windows -->
  <rect x="29" y="24.3" width="6" height="5.3" rx="1.5" fill="url(#towerMiniWindowClean2)"/>
  <rect x="29" y="29.4" width="6" height="5.3" rx="1.5" fill="url(#towerMiniWindowClean2)"/>
  <rect x="29" y="34.5" width="6" height="5.3" rx="1.5" fill="url(#towerMiniWindowClean2)"/>

  <!-- connected base -->
  <path d="M28.8 44H35.2L36.4 46.2H27.6L28.8 44Z" fill="#616B78"/>
  <path d="M27.8 46.2H36.2L37.6 48.5H26.4L27.8 46.2Z" fill="#555E6A"/>

  <!-- gate -->
  <path d="M28.8 44C28.8 40.8 30.1 39.2 32 39.2C33.9 39.2 35.2 40.8 35.2 44H28.8Z" fill="#12171E"/>

  <!-- platform -->
  <rect x="12" y="48.5" width="40" height="2.8" rx="1.4" fill="#7F8B99"/>
  <rect x="10" y="51" width="44" height="4.2" rx="1.8" fill="#535C69"/>

  <rect x="4.5" y="4.5" width="55" height="55" rx="15.5" stroke="#1E2731"/>
</svg>