<svg width="64" height="64" viewBox="0 0 64 64" fill="none" xmlns="http://www.w3.org/2000/svg">
  <defs>
    <linearGradient id="iconBg" x1="32" y1="4" x2="32" y2="60" gradientUnits="userSpaceOnUse">
      <stop offset="0" stop-color="#081018"/>
      <stop offset="0.58" stop-color="#0D1620"/>
      <stop offset="1" stop-color="#271523"/>
    </linearGradient>

    <linearGradient id="wallIconGrad" x1="32" y1="39" x2="32" y2="55" gradientUnits="userSpaceOnUse">
      <stop offset="0" stop-color="#7F8C9C"/>
      <stop offset="1" stop-color="#56616E"/>
    </linearGradient>

    <filter id="iconShadow" x="0" y="0" width="64" height="64" filterUnits="userSpaceOnUse" color-interpolation-filters="sRGB">
      <feDropShadow dx="0" dy="5" stdDeviation="5" flood-color="#05080D" flood-opacity="0.36"/>
    </filter>
  </defs>

  <g filter="url(#iconShadow)">
    <rect x="4" y="4" width="56" height="56" rx="16" fill="url(#iconBg)"/>
  </g>

  <circle cx="45" cy="17" r="8" fill="#D7E4F8" fill-opacity="0.08"/>

  <!-- wing -->
  <path d="M37 22C42 17 47 16 52 18C48 21 45 25 43 30C42 33 41 36 41 39C38 35 37 29 37 22Z"
        fill="#151C24"/>

  <!-- dragon -->
  <path d="M26 41
           C22 38 19 34 18 29
           C16 24 17 19 19 15
           C22 11 26 9 31 8
           C35 7 39 8 43 10
           C40 11 37 13 35 15
           C39 15 42 16 45 18
           C42 18 40 20 38 22
           C42 23 45 26 47 29
           C43 28 39 29 36 31
           C38 32 39 34 40 37
           C36 35 32 35 28 36
           C25 37 22 39 20 41
           C23 42 26 42 29 41
           C27 44 25 47 21 50
           C24 49 27 47 30 44
           C32 41 31 37 28 34
           C25 32 24 30 24 27
           C24 24 25 21 27 19
           C28 17 30 15 33 14
           C31 16 30 18 29 20
           C31 20 33 21 35 22
           C32 23 30 24 29 26
           C31 26 33 27 34 29
           C31 29 29 29 27 31
           C25 32 24 34 24 36
           C24 38 25 40 26 41Z"
        fill="#050607"/>

  <!-- jaw -->
  <path d="M20 25C18 25 16 27 14 29C13 31 11 32 9 33C11 34 13 34 15 34C14 36 13 38 12 40C15 39 18 37 20 34C22 32 23 28 23 25H20Z"
        fill="#050607"/>

  <!-- horns -->
  <path d="M29 14L31 8L31 15Z" fill="#050607"/>
  <path d="M33 12L37 6L35 14Z" fill="#050607"/>
  <path d="M37 13L42 9L38 16Z" fill="#050607"/>

  <!-- eye -->
  <path d="M26 20L29 19L27.7 21.5L25 21.7Z" fill="#F0F5FA"/>

  <!-- wall -->
  <rect x="10" y="39" width="44" height="6.5" rx="2" fill="#8591A0"/>
  <rect x="8" y="44" width="48" height="11" rx="3" fill="url(#wallIconGrad)"/>

  <path d="M16 39V55" stroke="#48525F" stroke-width="1.6"/>
  <path d="M24 39V55" stroke="#48525F" stroke-width="1.6"/>
  <path d="M40 39V55" stroke="#48525F" stroke-width="1.6"/>
  <path d="M48 39V55" stroke="#48525F" stroke-width="1.6"/>

  <rect x="4.5" y="4.5" width="55" height="55" rx="15.5" stroke="#1E2731"/>
</svg>