<svg width="64" height="64" viewBox="0 0 64 64" fill="none" xmlns="http://www.w3.org/2000/svg">
  <defs>
    <linearGradient id="towerMiniPremiumBgClean3" x1="32" y1="4" x2="32" y2="60" gradientUnits="userSpaceOnUse">
      <stop offset="0" stop-color="#091119"/>
      <stop offset="0.58" stop-color="#101822"/>
      <stop offset="1" stop-color="#2C162D"/>
    </linearGradient>

    <linearGradient id="towerMiniStoneFrontClean3" x1="32" y1="17" x2="32" y2="43" gradientUnits="userSpaceOnUse">
      <stop offset="0" stop-color="#8C98A7"/>
      <stop offset="1" stop-color="#57616F"/>
    </linearGradient>

    <linearGradient id="towerMiniWindowClean3" x1="32" y1="22" x2="32" y2="37" gradientUnits="userSpaceOnUse">
      <stop offset="0" stop-color="#FFD97A"/>
      <stop offset="1" stop-color="#FF9A52"/>
    </linearGradient>

    <linearGradient id="towerMiniGoldClean3" x1="32" y1="10" x2="32" y2="17" gradientUnits="userSpaceOnUse">
      <stop offset="0" stop-color="#FFE7A4"/>
      <stop offset="1" stop-color="#FFAE59"/>
    </linearGradient>

    <filter id="towerMiniPremiumShadowClean3" x="0" y="0" width="64" height="64" filterUnits="userSpaceOnUse" color-interpolation-filters="sRGB">
      <feDropShadow dx="0" dy="5" stdDeviation="5" flood-color="#04080D" flood-opacity="0.36"/>
    </filter>
  </defs>

  <g filter="url(#towerMiniPremiumShadowClean3)">
    <rect x="4" y="4" width="56" height="56" rx="16" fill="url(#towerMiniPremiumBgClean3)"/>
  </g>

  <!-- roof -->
  <path d="M32 13L39 19H25L32 13Z" fill="#262D37"/>
  <path d="M32 15L36.8 19H27.2L32 15Z" fill="#414A58"/>

  <!-- crown -->
  <rect x="25" y="18.2" width="14" height="3.2" rx="1.4" fill="#8A95A5"/>
  <path d="M25 18.2H27V16.3L28 18.2H30V15.9L32 18.2H34V15.9L36 18.2H38L39 16.3V18.2V21.4H25V18.2Z" fill="#98A4B3"/>

  <!-- top -->
  <path d="M32 10.2L33.5 14.8H30.5L32 10.2Z" fill="url(#towerMiniGoldClean3)"/>
  <circle cx="32" cy="9.6" r="1.3" fill="#FFE6A1"/>

  <!-- sides -->
  <path d="M23 23.5L24.6 21.8H26.6V42H21V27L23 23.5Z" fill="#47515E"/>
  <path d="M37.4 21.8H39.4L41 23.5V42H35.4V21.8H37.4Z" fill="#4E5866"/>

  <!-- center -->
  <rect x="26.6" y="21.8" width="10.8" height="20.2" rx="2.2" fill="url(#towerMiniStoneFrontClean3)"/>

  <!-- bands -->
  <rect x="26.6" y="26.2" width="10.8" height="1.5" rx="0.75" fill="#5C6674"/>
  <rect x="26.6" y="30.9" width="10.8" height="1.5" rx="0.75" fill="#5C6674"/>
  <rect x="26.6" y="35.6" width="10.8" height="1.5" rx="0.75" fill="#5C6674"/>

  <!-- windows -->
  <rect x="29" y="23.1" width="6" height="5.1" rx="1.5" fill="url(#towerMiniWindowClean3)"/>
  <rect x="29" y="27.8" width="6" height="5.1" rx="1.5" fill="url(#towerMiniWindowClean3)"/>
  <rect x="29" y="32.5" width="6" height="5.1" rx="1.5" fill="url(#towerMiniWindowClean3)"/>

  <!-- gate -->
  <path d="M28.8 42C28.8 39 30.1 37.5 32 37.5C33.9 37.5 35.2 39 35.2 42H28.8Z" fill="#12171E"/>

  <!-- 2 полосы -->
  <rect x="12" y="45" width="40" height="2.8" rx="1.4" fill="#7F8B99"/>
  <rect x="10" y="48" width="44" height="4.2" rx="1.8" fill="#535C69"/>

  <rect x="4.5" y="4.5" width="55" height="55" rx="15.5" stroke="#1E2731"/>
</svg>