<svg width="64" height="64" viewBox="0 0 64 64" fill="none" xmlns="http://www.w3.org/2000/svg">
  <defs>
    <linearGradient id="towerMiniBg" x1="32" y1="4" x2="32" y2="60" gradientUnits="userSpaceOnUse">
      <stop offset="0" stop-color="#091119"/>
      <stop offset="0.58" stop-color="#101822"/>
      <stop offset="1" stop-color="#2C162D"/>
    </linearGradient>

    <linearGradient id="miniStone" x1="32" y1="16" x2="32" y2="48" gradientUnits="userSpaceOnUse">
      <stop offset="0" stop-color="#8A97A7"/>
      <stop offset="1" stop-color="#56616E"/>
    </linearGradient>

    <linearGradient id="miniWindow" x1="32" y1="22" x2="32" y2="39" gradientUnits="userSpaceOnUse">
      <stop offset="0" stop-color="#FFD875"/>
      <stop offset="1" stop-color="#FF9A52"/>
    </linearGradient>

    <filter id="towerMiniShadow" x="0" y="0" width="64" height="64" filterUnits="userSpaceOnUse" color-interpolation-filters="sRGB">
      <feDropShadow dx="0" dy="5" stdDeviation="5" flood-color="#04080D" flood-opacity="0.36"/>
    </filter>
  </defs>

  <g filter="url(#towerMiniShadow)">
    <rect x="4" y="4" width="56" height="56" rx="16" fill="url(#towerMiniBg)"/>
  </g>

  <circle cx="45" cy="16" r="8" fill="#DDE8FF" fill-opacity="0.08"/>

  <!-- roof -->
  <path d="M32 13L41 20H23L32 13Z" fill="#242B35"/>
  <path d="M32 15.5L38 20H26L32 15.5Z" fill="#3A4351"/>

  <!-- crown -->
  <rect x="24" y="19" width="16" height="4" rx="1.5" fill="#8793A3"/>
  <path d="M24 19H27V16L28.5 19H31.2V15.5L32 19H34.8V16L36 19H40V23H24V19Z" fill="#909AAA"/>

  <!-- body -->
  <rect x="26" y="23" width="12" height="24" rx="2.5" fill="url(#miniStone)"/>
  <path d="M23 24H26V47H20V29L23 24Z" fill="#46505C"/>
  <path d="M38 24H41L44 29V47H38V24Z" fill="#4F5967"/>

  <!-- bands -->
  <rect x="26" y="28" width="12" height="1.8" rx="0.9" fill="#5B6573"/>
  <rect x="26" y="34" width="12" height="1.8" rx="0.9" fill="#5B6573"/>
  <rect x="26" y="40" width="12" height="1.8" rx="0.9" fill="#5B6573"/>

  <!-- windows -->
  <rect x="29" y="25.5" width="6" height="6" rx="1.7" fill="url(#miniWindow)"/>
  <rect x="29" y="31.5" width="6" height="6" rx="1.7" fill="url(#miniWindow)"/>
  <rect x="29" y="37.5" width="6" height="6" rx="1.7" fill="url(#miniWindow)"/>

  <!-- gate -->
  <path d="M28.4 47C28.4 42.8 30.2 40.8 32 40.8C33.8 40.8 35.6 42.8 35.6 47H28.4Z" fill="#12171E"/>

  <!-- wall -->
  <rect x="10" y="47" width="44" height="3.8" rx="1.6" fill="#7D8998"/>
  <rect x="8" y="50" width="48" height="5.5" rx="2" fill="#515B68"/>

  <rect x="4.5" y="4.5" width="55" height="55" rx="15.5" stroke="#1E2731"/>
</svg>