<svg width="64" height="64" viewBox="0 0 64 64" fill="none" xmlns="http://www.w3.org/2000/svg">
  <defs>
    <linearGradient id="towerIconBg" x1="32" y1="4" x2="32" y2="60" gradientUnits="userSpaceOnUse">
      <stop offset="0" stop-color="#0A1118"/>
      <stop offset="0.6" stop-color="#111A24"/>
      <stop offset="1" stop-color="#2D1730"/>
    </linearGradient>

    <linearGradient id="towerWallMini" x1="32" y1="40" x2="32" y2="55" gradientUnits="userSpaceOnUse">
      <stop offset="0" stop-color="#8391A2"/>
      <stop offset="1" stop-color="#59636F"/>
    </linearGradient>

    <filter id="towerIconShadow" x="0" y="0" width="64" height="64" filterUnits="userSpaceOnUse" color-interpolation-filters="sRGB">
      <feDropShadow dx="0" dy="5" stdDeviation="5" flood-color="#04080D" flood-opacity="0.36"/>
    </filter>
  </defs>

  <g filter="url(#towerIconShadow)">
    <rect x="4" y="4" width="56" height="56" rx="16" fill="url(#towerIconBg)"/>
  </g>

  <circle cx="45" cy="17" r="8" fill="#D8E5FF" fill-opacity="0.08"/>

  <!-- dragon -->
  <path d="M33 13
           C29 14 25 16 22.5 19.4
           C20.2 22.4 19.2 26.1 19.4 29.9
           C19.6 33.2 20.8 36.1 23 38.3
           C24.5 39.8 26.4 41 28.8 41.8
           C26.1 43 23.9 44.8 22.1 47
           C25 46.1 27.6 45.7 29.9 45.8
           C29.2 48.4 29.6 50.7 31.2 52.8
           C31.2 49.5 32.3 46.9 34.4 44.8
           C36.1 43 38.3 41.8 41 40.8
           C43.5 39.9 45.5 38.5 46.8 36.7
           C48.1 34.9 48.8 32.9 48.7 30.5
           C48.7 28.3 48 26.4 46.6 24.7
           C45.2 23.2 43.4 22 41.2 21.3
           C43.5 20.5 45.3 19.1 46.7 17.1
           C43.7 17.9 41.2 18.1 39.1 17.7
           C40.3 15.9 40.9 14.1 41.1 11.9
           C38.9 13.4 36.2 13.8 33 13Z"
        fill="#050607"/>

  <path d="M39.6 22.1
           C43.7 20.8 47.8 21.2 52 23.3
           C49.3 24.1 46.9 25.4 45 27.1
           C43.1 28.9 41.9 31 41.2 33.8
           C39.7 31.6 39 29 39 26.1
           C39 24.5 39.2 23.1 39.6 22.1Z"
        fill="#050607"/>

  <path d="M21 21.4
           C19.7 21.6 18.3 22.5 17 23.8
           C15.9 24.9 14.7 25.7 13 26.1
           C14.6 26.7 16.2 26.7 17.9 26.2
           C16.9 27.4 16.2 28.8 15.8 30.5
           C18.2 29.8 20.3 28.7 22.2 27
           C23.5 25.7 24.2 24.1 24.2 22.1L21 21.4Z"
        fill="#050607"/>

  <path d="M27.4 18L29.4 11.7L29.1 18.5Z" fill="#050607"/>
  <path d="M31.5 15.5L35.5 9.4L33.6 16.3Z" fill="#050607"/>
  <path d="M35.5 15.8L40.4 12.5L36.9 17.5Z" fill="#050607"/>

  <path d="M27 23.3L30.8 22.3L29.4 24.8L26.3 25Z" fill="#EFF5FA"/>

  <!-- wall -->
  <rect x="10" y="40" width="44" height="6.5" rx="2" fill="#8693A3"/>
  <rect x="8" y="45" width="48" height="10" rx="3" fill="url(#towerWallMini)"/>

  <path d="M16 40V55" stroke="#495360" stroke-width="1.6"/>
  <path d="M24 40V55" stroke="#495360" stroke-width="1.6"/>
  <path d="M40 40V55" stroke="#495360" stroke-width="1.6"/>
  <path d="M48 40V55" stroke="#495360" stroke-width="1.6"/>

  <rect x="4.5" y="4.5" width="55" height="55" rx="15.5" stroke="#1E2731"/>
</svg>